<svg viewBox="0 0 331 47" fill="none" xmlns="http://www.w3.org/2000/svg">
<path d="M34.416 12H41.424L33.744 36H26.16L20.928 19.68L15.888 36H8.304L0.624 12H7.632L12.432 30.384L17.76 12H24.288L29.664 30.384L34.416 12ZM53.3906 11.52C55.8226 11.52 57.9506 12.016 59.7746 13.008C61.6306 14 63.0706 15.424 64.0946 17.28C65.1506 19.136 65.6786 21.376 65.6786 24C65.6786 26.592 65.1506 28.832 64.0946 30.72C63.0706 32.576 61.6306 34 59.7746 34.992C57.9506 35.984 55.8226 36.48 53.3906 36.48C50.9906 36.48 48.8626 35.984 47.0066 34.992C45.1506 34 43.6946 32.576 42.6386 30.72C41.6146 28.832 41.1026 26.592 41.1026 24C41.1026 21.376 41.6146 19.136 42.6386 17.28C43.6946 15.424 45.1506 14 47.0066 13.008C48.8626 12.016 50.9906 11.52 53.3906 11.52ZM53.3906 16.416C52.1746 16.416 51.1346 16.704 50.2706 17.28C49.4386 17.824 48.7986 18.656 48.3506 19.776C47.9026 20.896 47.6786 22.304 47.6786 24C47.6786 25.696 47.9026 27.104 48.3506 28.224C48.7986 29.344 49.4386 30.192 50.2706 30.768C51.1346 31.312 52.1746 31.584 53.3906 31.584C54.5746 31.584 55.5826 31.312 56.4146 30.768C57.2786 30.192 57.9346 29.344 58.3826 28.224C58.8306 27.104 59.0546 25.696 59.0546 24C59.0546 22.304 58.8306 20.896 58.3826 19.776C57.9346 18.656 57.2786 17.824 56.4146 17.28C55.5826 16.704 54.5746 16.416 53.3906 16.416ZM68.781 36V12H74.685L75.069 19.2L74.253 18.432C74.637 16.864 75.245 15.568 76.077 14.544C76.909 13.52 77.917 12.768 79.101 12.288C80.317 11.776 81.645 11.52 83.085 11.52C84.749 11.52 86.221 11.84 87.501 12.48C88.813 13.12 89.837 14.096 90.573 15.408C91.341 16.688 91.725 18.304 91.725 20.256V36H85.149V22.128C85.149 20.08 84.749 18.672 83.949 17.904C83.149 17.104 82.109 16.704 80.829 16.704C79.933 16.704 79.053 16.928 78.189 17.376C77.357 17.792 76.669 18.48 76.125 19.44C75.613 20.4 75.357 21.68 75.357 23.28V36H68.781ZM99.4118 8.544C98.0358 8.544 97.0118 8.256 96.3398 7.68C95.6678 7.072 95.3318 6.192 95.3318 5.04C95.3318 3.856 95.6678 2.976 96.3398 2.4C97.0118 1.792 98.0358 1.488 99.4118 1.488C100.788 1.488 101.812 1.792 102.484 2.4C103.156 2.976 103.492 3.856 103.492 5.04C103.492 6.192 103.156 7.072 102.484 7.68C101.812 8.256 100.788 8.544 99.4118 8.544ZM102.676 12V37.776C102.676 39.856 102.292 41.52 101.524 42.768C100.788 44.016 99.7798 44.912 98.4998 45.456C97.2198 46.032 95.7638 46.32 94.1318 46.32C92.9478 46.32 91.8758 46.176 90.9158 45.888C89.9558 45.632 89.1238 45.264 88.4198 44.784L89.4278 40.08C89.8118 40.4 90.2918 40.672 90.8678 40.896C91.4438 41.12 92.0838 41.232 92.7878 41.232C93.7798 41.232 94.5798 40.928 95.1878 40.32C95.7958 39.712 96.0998 38.656 96.0998 37.152V12H102.676ZM115.599 36.48C113.999 36.48 112.559 36.192 111.279 35.616C109.999 35.04 108.975 34.128 108.207 32.88C107.471 31.6 107.103 29.952 107.103 27.936V12H113.679V26.352C113.679 28.208 114.063 29.504 114.831 30.24C115.599 30.944 116.703 31.296 118.143 31.296C118.815 31.296 119.471 31.184 120.111 30.96C120.751 30.704 121.311 30.32 121.791 29.808C122.303 29.296 122.703 28.64 122.991 27.84C123.279 27.008 123.423 26.032 123.423 24.912V12H129.999V36H124.143L123.903 31.824C123.103 33.424 121.999 34.608 120.591 35.376C119.215 36.112 117.551 36.48 115.599 36.48ZM134.519 36V12H140.423L140.807 19.2L139.991 18.432C140.375 16.864 140.983 15.568 141.815 14.544C142.647 13.52 143.655 12.768 144.839 12.288C146.055 11.776 147.383 11.52 148.823 11.52C150.487 11.52 151.959 11.84 153.239 12.48C154.551 13.12 155.575 14.096 156.311 15.408C157.079 16.688 157.463 18.304 157.463 20.256V36H150.887V22.128C150.887 20.08 150.487 18.672 149.687 17.904C148.887 17.104 147.847 16.704 146.567 16.704C145.671 16.704 144.791 16.928 143.927 17.376C143.095 17.792 142.407 18.48 141.863 19.44C141.351 20.4 141.095 21.68 141.095 23.28V36H134.519ZM170.909 36.48C168.925 36.48 167.149 35.984 165.581 34.992C164.045 34 162.829 32.576 161.933 30.72C161.069 28.864 160.637 26.64 160.637 24.048C160.637 21.392 161.101 19.136 162.029 17.28C162.957 15.392 164.205 13.968 165.773 13.008C167.373 12.016 169.165 11.52 171.149 11.52C173.261 11.52 175.005 12.128 176.381 13.344C177.757 14.56 178.653 16.128 179.069 18.048L178.445 18.816V1.488H185.021V36H179.117L178.685 28.704L179.501 29.088C179.277 30.592 178.765 31.904 177.965 33.024C177.165 34.112 176.157 34.96 174.941 35.568C173.725 36.176 172.381 36.48 170.909 36.48ZM172.829 31.44C173.981 31.44 174.973 31.152 175.805 30.576C176.637 29.968 177.277 29.088 177.725 27.936C178.205 26.784 178.445 25.408 178.445 23.808C178.445 22.272 178.221 20.976 177.773 19.92C177.325 18.832 176.685 18 175.853 17.424C175.021 16.848 174.045 16.56 172.925 16.56C171.133 16.56 169.725 17.2 168.701 18.48C167.709 19.728 167.213 21.568 167.213 24C167.213 26.432 167.709 28.288 168.701 29.568C169.693 30.816 171.069 31.44 172.829 31.44ZM200.667 36.48C198.139 36.48 195.931 35.984 194.043 34.992C192.187 34 190.747 32.576 189.723 30.72C188.699 28.864 188.187 26.624 188.187 24C188.187 21.376 188.699 19.136 189.723 17.28C190.747 15.424 192.171 14 193.995 13.008C195.851 12.016 197.963 11.52 200.331 11.52C202.763 11.52 204.827 12.016 206.523 13.008C208.219 13.968 209.515 15.296 210.411 16.992C211.307 18.656 211.755 20.56 211.755 22.704C211.755 23.344 211.739 23.952 211.707 24.528C211.675 25.104 211.627 25.616 211.563 26.064H192.411V21.504H208.683L205.515 22.656C205.515 20.64 205.051 19.088 204.123 18C203.227 16.912 201.947 16.368 200.283 16.368C199.067 16.368 198.011 16.656 197.115 17.232C196.251 17.808 195.595 18.672 195.147 19.824C194.699 20.944 194.475 22.368 194.475 24.096C194.475 25.792 194.715 27.2 195.195 28.32C195.707 29.408 196.411 30.224 197.307 30.768C198.235 31.312 199.339 31.584 200.619 31.584C202.027 31.584 203.163 31.312 204.027 30.768C204.891 30.224 205.563 29.472 206.043 28.512L211.275 30.528C210.763 31.776 209.979 32.848 208.923 33.744C207.899 34.64 206.667 35.328 205.227 35.808C203.819 36.256 202.299 36.48 200.667 36.48ZM229.922 12H236.738L227.618 36H220.034L210.914 12H217.922L223.874 30.96L229.922 12ZM237.918 28.656C239.198 28.656 240.206 29.008 240.942 29.712C241.71 30.416 242.094 31.36 242.094 32.544C242.094 33.76 241.71 34.72 240.942 35.424C240.206 36.096 239.198 36.432 237.918 36.432C236.638 36.432 235.614 36.096 234.846 35.424C234.11 34.72 233.742 33.76 233.742 32.544C233.742 31.36 234.11 30.416 234.846 29.712C235.614 29.008 236.638 28.656 237.918 28.656Z" fill="#333D4B"/>
<path d="M250.506 5.328V29.664C250.506 31.168 250.858 32.32 251.562 33.12C252.298 33.888 253.354 34.272 254.73 34.272C255.626 34.272 256.41 34.128 257.082 33.84C257.786 33.52 258.41 33.072 258.954 32.496L259.866 34.464C259.258 35.072 258.49 35.568 257.562 35.952C256.634 36.304 255.594 36.48 254.442 36.48C253.194 36.48 252.09 36.256 251.13 35.808C250.17 35.328 249.418 34.608 248.874 33.648C248.362 32.688 248.106 31.472 248.106 30V6L250.506 5.328ZM259.482 12V14.064H243.306V12H259.482ZM272.008 36.48C269.8 36.48 267.832 35.984 266.104 34.992C264.376 34 263.016 32.576 262.024 30.72C261.064 28.832 260.584 26.592 260.584 24C260.584 21.408 261.064 19.184 262.024 17.328C263.016 15.44 264.344 14 266.008 13.008C267.672 12.016 269.576 11.52 271.72 11.52C273.896 11.52 275.752 12 277.288 12.96C278.824 13.92 280.008 15.264 280.84 16.992C281.672 18.688 282.088 20.656 282.088 22.896C282.088 23.184 282.072 23.472 282.04 23.76C282.04 24.016 282.024 24.256 281.992 24.48H262.072V22.32H280.936L279.736 22.656C279.704 19.904 278.968 17.712 277.528 16.08C276.12 14.448 274.168 13.632 271.672 13.632C269.944 13.632 268.424 14.048 267.112 14.88C265.8 15.68 264.776 16.864 264.04 18.432C263.304 19.968 262.936 21.824 262.936 24C262.936 26.144 263.304 28 264.04 29.568C264.808 31.136 265.864 32.336 267.208 33.168C268.584 33.968 270.168 34.368 271.96 34.368C273.816 34.368 275.4 33.968 276.712 33.168C278.056 32.368 279.096 31.264 279.832 29.856L281.752 30.96C281.176 32.112 280.408 33.104 279.448 33.936C278.488 34.736 277.384 35.36 276.136 35.808C274.888 36.256 273.512 36.48 272.008 36.48ZM296.231 11.52C297.863 11.52 299.319 11.776 300.599 12.288C301.879 12.8 302.967 13.536 303.863 14.496C304.759 15.456 305.447 16.624 305.927 18L303.671 19.056C303.159 17.328 302.263 16 300.983 15.072C299.735 14.112 298.135 13.632 296.183 13.632C294.423 13.632 292.871 14.048 291.527 14.88C290.183 15.68 289.143 16.864 288.407 18.432C287.671 19.968 287.303 21.824 287.303 24C287.303 26.144 287.671 28 288.407 29.568C289.143 31.136 290.167 32.336 291.479 33.168C292.791 33.968 294.343 34.368 296.135 34.368C297.479 34.368 298.695 34.144 299.783 33.696C300.903 33.248 301.815 32.592 302.519 31.728C303.255 30.864 303.735 29.84 303.959 28.656L306.167 29.424C305.751 30.896 305.063 32.16 304.103 33.216C303.175 34.272 302.039 35.088 300.695 35.664C299.351 36.208 297.847 36.48 296.183 36.48C294.007 36.48 292.055 35.984 290.327 34.992C288.631 34 287.303 32.576 286.343 30.72C285.383 28.832 284.903 26.592 284.903 24C284.903 21.408 285.383 19.184 286.343 17.328C287.335 15.44 288.679 14 290.375 13.008C292.103 12.016 294.055 11.52 296.231 11.52ZM310.197 36V0.959999H312.597V16.896C313.301 15.2 314.437 13.888 316.005 12.96C317.573 12 319.381 11.52 321.429 11.52C323.221 11.52 324.805 11.856 326.181 12.528C327.557 13.168 328.629 14.16 329.397 15.504C330.197 16.816 330.597 18.448 330.597 20.4V36H328.197V21.168C328.197 18.576 327.541 16.672 326.229 15.456C324.949 14.208 323.269 13.584 321.189 13.584C319.685 13.584 318.277 13.936 316.965 14.64C315.685 15.344 314.629 16.352 313.797 17.664C312.997 18.976 312.597 20.576 312.597 22.464V36H310.197Z" fill="#2563EB"/>
</svg>
