<svg viewBox="0 0 286 40" fill="none" xmlns="http://www.w3.org/2000/svg">
<g filter="url(#filter0_d_306_36)">
<path d="M28.76 9H33.4L26.68 29H22L16.96 14.16L12.2 29H7.52L0.84 9H5.44L10 24.8L14.96 9H19.24L24.2 24.8L28.76 9ZM44.0328 8.6C45.9795 8.6 47.6995 9.01333 49.1928 9.84C50.6861 10.6667 51.8461 11.8667 52.6728 13.44C53.5261 14.9867 53.9528 16.84 53.9528 19C53.9528 21.16 53.5261 23.0267 52.6728 24.6C51.8461 26.1467 50.6861 27.3333 49.1928 28.16C47.6995 28.9867 45.9795 29.4 44.0328 29.4C42.0861 29.4 40.3661 28.9867 38.8728 28.16C37.3795 27.3333 36.2061 26.1467 35.3528 24.6C34.4995 23.0267 34.0728 21.16 34.0728 19C34.0728 16.84 34.4995 14.9867 35.3528 13.44C36.2061 11.8667 37.3795 10.6667 38.8728 9.84C40.3661 9.01333 42.0861 8.6 44.0328 8.6ZM44.0328 11.96C42.8328 11.96 41.8061 12.24 40.9528 12.8C40.1261 13.3333 39.4861 14.12 39.0328 15.16C38.5795 16.2 38.3528 17.48 38.3528 19C38.3528 20.4933 38.5795 21.7733 39.0328 22.84C39.4861 23.88 40.1261 24.68 40.9528 25.24C41.8061 25.7733 42.8328 26.04 44.0328 26.04C45.2328 26.04 46.2461 25.7733 47.0728 25.24C47.8995 24.68 48.5395 23.88 48.9928 22.84C49.4461 21.7733 49.6728 20.4933 49.6728 19C49.6728 17.48 49.4461 16.2 48.9928 15.16C48.5395 14.12 47.8995 13.3333 47.0728 12.8C46.2461 12.24 45.2328 11.96 44.0328 11.96ZM57.7372 29V9H61.5372L61.8172 14.2L61.2572 13.64C61.6305 12.4933 62.1639 11.5467 62.8572 10.8C63.5772 10.0267 64.4172 9.46667 65.3772 9.12C66.3639 8.77333 67.4039 8.6 68.4972 8.6C69.9105 8.6 71.1772 8.88 72.2972 9.44C73.4439 9.97333 74.3505 10.7867 75.0172 11.88C75.6839 12.9733 76.0172 14.36 76.0172 16.04V29H71.7372V17.36C71.7372 15.3867 71.3239 14.0267 70.4972 13.28C69.6972 12.5067 68.6839 12.12 67.4572 12.12C66.5772 12.12 65.7239 12.3333 64.8972 12.76C64.0705 13.16 63.3772 13.8133 62.8172 14.72C62.2839 15.6267 62.0172 16.84 62.0172 18.36V29H57.7372ZM83.0628 5.64C82.1295 5.64 81.4095 5.41333 80.9028 4.96C80.4228 4.48 80.1828 3.81333 80.1828 2.96C80.1828 2.10667 80.4228 1.45333 80.9028 0.999998C81.4095 0.546666 82.1295 0.32 83.0628 0.32C83.9695 0.32 84.6628 0.546666 85.1428 0.999998C85.6495 1.45333 85.9028 2.10667 85.9028 2.96C85.9028 3.81333 85.6495 4.48 85.1428 4.96C84.6628 5.41333 83.9695 5.64 83.0628 5.64ZM85.1828 9V30.76C85.1828 32.4667 84.8628 33.8133 84.2228 34.8C83.6095 35.8133 82.7961 36.5333 81.7828 36.96C80.7961 37.3867 79.7428 37.6 78.6228 37.6C77.7161 37.6 76.8895 37.48 76.1428 37.24C75.3961 37 74.7695 36.68 74.2628 36.28L74.9828 32.84C75.3561 33.16 75.8095 33.4267 76.3428 33.64C76.8495 33.8533 77.4228 33.96 78.0628 33.96C78.9161 33.96 79.5961 33.68 80.1028 33.12C80.6361 32.5867 80.9028 31.6667 80.9028 30.36V9H85.1828ZM97.3994 29.4C96.0927 29.4 94.8794 29.16 93.7594 28.68C92.666 28.2 91.786 27.4267 91.1194 26.36C90.4527 25.2933 90.1194 23.9067 90.1194 22.2V9H94.3994V21.12C94.3994 22.9333 94.786 24.1867 95.5594 24.88C96.3327 25.5467 97.4127 25.88 98.7994 25.88C99.466 25.88 100.106 25.7733 100.719 25.56C101.359 25.32 101.933 24.96 102.439 24.48C102.946 23.9733 103.333 23.3333 103.599 22.56C103.893 21.7867 104.039 20.88 104.039 19.84V9H108.319V29H104.559L104.359 25.76C103.666 27.0133 102.733 27.9333 101.559 28.52C100.386 29.1067 98.9994 29.4 97.3994 29.4ZM113.406 29V9H117.206L117.486 14.2L116.926 13.64C117.299 12.4933 117.833 11.5467 118.526 10.8C119.246 10.0267 120.086 9.46667 121.046 9.12C122.033 8.77333 123.073 8.6 124.166 8.6C125.579 8.6 126.846 8.88 127.966 9.44C129.113 9.97333 130.019 10.7867 130.686 11.88C131.353 12.9733 131.686 14.36 131.686 16.04V29H127.406V17.36C127.406 15.3867 126.993 14.0267 126.166 13.28C125.366 12.5067 124.353 12.12 123.126 12.12C122.246 12.12 121.393 12.3333 120.566 12.76C119.739 13.16 119.046 13.8133 118.486 14.72C117.953 15.6267 117.686 16.84 117.686 18.36V29H113.406ZM144.252 29.4C142.598 29.4 141.092 28.9867 139.732 28.16C138.398 27.3333 137.345 26.1467 136.572 24.6C135.798 23.0533 135.412 21.2 135.412 19.04C135.412 16.8 135.825 14.9067 136.652 13.36C137.478 11.8133 138.585 10.64 139.972 9.84C141.358 9.01333 142.878 8.6 144.532 8.6C146.238 8.6 147.678 9.06667 148.852 10C150.025 10.9333 150.812 12.1467 151.212 13.64L150.732 14.08V-9.53674e-07H155.012V29H151.212L150.892 23.56L151.452 23.6C151.265 24.8 150.825 25.84 150.132 26.72C149.438 27.5733 148.572 28.24 147.532 28.72C146.518 29.1733 145.425 29.4 144.252 29.4ZM145.172 25.96C146.318 25.96 147.305 25.6667 148.132 25.08C148.958 24.4933 149.598 23.6667 150.052 22.6C150.505 21.5333 150.732 20.2533 150.732 18.76C150.732 17.3733 150.505 16.1867 150.052 15.2C149.598 14.1867 148.958 13.4133 148.132 12.88C147.332 12.3467 146.398 12.08 145.332 12.08C143.545 12.08 142.158 12.6933 141.172 13.92C140.185 15.1467 139.692 16.84 139.692 19C139.692 21.16 140.172 22.8667 141.132 24.12C142.092 25.3467 143.438 25.96 145.172 25.96ZM168.85 29.4C166.85 29.4 165.09 28.9867 163.57 28.16C162.05 27.3333 160.863 26.1467 160.01 24.6C159.183 23.0267 158.77 21.16 158.77 19C158.77 16.84 159.183 14.9867 160.01 13.44C160.863 11.8667 162.036 10.6667 163.53 9.84C165.023 9.01333 166.716 8.6 168.61 8.6C170.556 8.6 172.21 9 173.57 9.8C174.93 10.6 175.97 11.6933 176.69 13.08C177.41 14.4667 177.77 16.04 177.77 17.8C177.77 18.28 177.756 18.7333 177.73 19.16C177.703 19.5867 177.663 19.96 177.61 20.28H161.53V17H175.73L173.61 17.64C173.61 15.8267 173.156 14.44 172.25 13.48C171.343 12.4933 170.103 12 168.53 12C167.383 12 166.383 12.2667 165.53 12.8C164.676 13.3333 164.023 14.1333 163.57 15.2C163.116 16.24 162.89 17.52 162.89 19.04C162.89 20.5333 163.13 21.8 163.61 22.84C164.09 23.88 164.77 24.6667 165.65 25.2C166.53 25.7333 167.57 26 168.77 26C170.103 26 171.183 25.7467 172.01 25.24C172.836 24.7333 173.49 24.0267 173.97 23.12L177.37 24.72C176.89 25.68 176.236 26.52 175.41 27.24C174.61 27.9333 173.65 28.4667 172.53 28.84C171.41 29.2133 170.183 29.4 168.85 29.4ZM194.149 9H198.629L190.669 29H185.989L177.989 9H182.669L188.349 25.28L194.149 9ZM199.947 23.6C200.854 23.6 201.574 23.8667 202.107 24.4C202.667 24.9067 202.947 25.6 202.947 26.48C202.947 27.36 202.667 28.0667 202.107 28.6C201.574 29.1333 200.854 29.4 199.947 29.4C199.014 29.4 198.267 29.1333 197.707 28.6C197.174 28.0667 196.907 27.36 196.907 26.48C196.907 25.6 197.174 24.9067 197.707 24.4C198.267 23.8667 199.014 23.6 199.947 23.6Z" fill="#F4F4F0"/>
<path d="M212.965 3.12V23C212.965 23.9867 213.218 24.7067 213.725 25.16C214.258 25.6133 214.965 25.84 215.845 25.84C216.565 25.84 217.191 25.7333 217.725 25.52C218.258 25.28 218.751 24.96 219.205 24.56L220.165 27.68C219.551 28.2133 218.791 28.64 217.885 28.96C217.005 29.2533 216.018 29.4 214.925 29.4C213.778 29.4 212.725 29.2133 211.765 28.84C210.805 28.4667 210.058 27.8667 209.525 27.04C208.991 26.1867 208.711 25.08 208.685 23.72V4.32L212.965 3.12ZM219.845 9V12.36H204.845V9H219.845ZM231.278 29.4C229.278 29.4 227.518 28.9867 225.998 28.16C224.478 27.3333 223.291 26.1467 222.438 24.6C221.611 23.0267 221.198 21.16 221.198 19C221.198 16.84 221.611 14.9867 222.438 13.44C223.291 11.8667 224.464 10.6667 225.958 9.84C227.451 9.01333 229.144 8.6 231.038 8.6C232.984 8.6 234.638 9 235.998 9.8C237.358 10.6 238.398 11.6933 239.118 13.08C239.838 14.4667 240.198 16.04 240.198 17.8C240.198 18.28 240.184 18.7333 240.158 19.16C240.131 19.5867 240.091 19.96 240.038 20.28H223.958V17H238.158L236.038 17.64C236.038 15.8267 235.584 14.44 234.678 13.48C233.771 12.4933 232.531 12 230.958 12C229.811 12 228.811 12.2667 227.958 12.8C227.104 13.3333 226.451 14.1333 225.998 15.2C225.544 16.24 225.318 17.52 225.318 19.04C225.318 20.5333 225.558 21.8 226.038 22.84C226.518 23.88 227.198 24.6667 228.078 25.2C228.958 25.7333 229.998 26 231.198 26C232.531 26 233.611 25.7467 234.438 25.24C235.264 24.7333 235.918 24.0267 236.398 23.12L239.798 24.72C239.318 25.68 238.664 26.52 237.838 27.24C237.038 27.9333 236.078 28.4667 234.958 28.84C233.838 29.2133 232.611 29.4 231.278 29.4ZM252.643 8.6C254.243 8.6 255.603 8.84 256.723 9.32C257.869 9.77333 258.829 10.4267 259.603 11.28C260.376 12.1333 260.963 13.1067 261.363 14.2L257.323 15.8C256.976 14.5733 256.416 13.64 255.643 13C254.896 12.3333 253.909 12 252.683 12C251.483 12 250.456 12.28 249.603 12.84C248.749 13.3733 248.096 14.16 247.643 15.2C247.216 16.24 247.003 17.52 247.003 19.04C247.003 20.5333 247.229 21.8 247.683 22.84C248.136 23.88 248.789 24.6667 249.643 25.2C250.496 25.7333 251.509 26 252.683 26C253.589 26 254.376 25.8533 255.043 25.56C255.709 25.24 256.256 24.8 256.683 24.24C257.136 23.6533 257.443 22.9467 257.603 22.12L261.483 23.44C261.109 24.64 260.523 25.6933 259.723 26.6C258.949 27.48 257.976 28.1733 256.803 28.68C255.629 29.16 254.283 29.4 252.763 29.4C250.789 29.4 249.043 28.9867 247.523 28.16C246.003 27.3333 244.816 26.1467 243.963 24.6C243.136 23.0267 242.723 21.16 242.723 19C242.723 16.84 243.136 14.9867 243.963 13.44C244.816 11.8667 245.989 10.6667 247.483 9.84C249.003 9.01333 250.723 8.6 252.643 8.6ZM264.864 29V-9.53674e-07H269.144V12.2C269.81 10.9467 270.704 10.04 271.824 9.48C272.97 8.89333 274.237 8.6 275.624 8.6C277.037 8.6 278.304 8.88 279.424 9.44C280.57 9.97333 281.477 10.7867 282.144 11.88C282.81 12.9733 283.144 14.36 283.144 16.04V29H278.864V17.4C278.864 15.4267 278.45 14.0533 277.624 13.28C276.824 12.5067 275.81 12.12 274.584 12.12C273.73 12.12 272.877 12.3333 272.024 12.76C271.197 13.16 270.504 13.8267 269.944 14.76C269.41 15.6667 269.144 16.8933 269.144 18.44V29H264.864Z" fill="#2563EB"/>
<path d="M28.76 9V8H28.0078L27.7992 8.72271L28.76 9ZM33.4 9L34.3479 9.3185L34.7909 8H33.4V9ZM26.68 29V30H27.3989L27.6279 29.3185L26.68 29ZM22 29L21.0531 29.3216L21.2835 30H22V29ZM16.96 14.16L17.9069 13.8384L16.9329 10.9705L16.0078 13.8546L16.96 14.16ZM12.2 29V30H12.9294L13.1522 29.3054L12.2 29ZM7.52 29L6.57151 29.3168L6.7997 30H7.52V29ZM0.84 9V8H-0.548304L-0.108493 9.3168L0.84 9ZM5.44 9L6.40079 8.72271L6.19221 8H5.44V9ZM10 24.8L9.03921 25.0773L9.95977 28.2669L10.9541 25.0995L10 24.8ZM14.96 9V8H14.2258L14.0059 8.70049L14.96 9ZM19.24 9L20.1941 8.70049L19.9742 8H19.24V9ZM24.2 24.8L23.2459 25.0995L24.2402 28.2669L25.1608 25.0773L24.2 24.8ZM28.76 10H33.4V8H28.76V10ZM32.4521 8.6815L25.7321 28.6815L27.6279 29.3185L34.3479 9.3185L32.4521 8.6815ZM26.68 28H22V30H26.68V28ZM22.9469 28.6784L17.9069 13.8384L16.0131 14.4816L21.0531 29.3216L22.9469 28.6784ZM16.0078 13.8546L11.2478 28.6946L13.1522 29.3054L17.9122 14.4654L16.0078 13.8546ZM12.2 28H7.52V30H12.2V28ZM8.46849 28.6832L1.78849 8.6832L-0.108493 9.3168L6.57151 29.3168L8.46849 28.6832ZM0.84 10H5.44V8H0.84V10ZM4.47921 9.27729L9.03921 25.0773L10.9608 24.5227L6.40079 8.72271L4.47921 9.27729ZM10.9541 25.0995L15.9141 9.29951L14.0059 8.70049L9.04591 24.5005L10.9541 25.0995ZM14.96 10H19.24V8H14.96V10ZM18.2859 9.29951L23.2459 25.0995L25.1541 24.5005L20.1941 8.70049L18.2859 9.29951ZM25.1608 25.0773L29.7208 9.27729L27.7992 8.72271L23.2392 24.5227L25.1608 25.0773ZM52.6728 13.44L51.7876 13.9051L51.7923 13.9142L51.7972 13.9231L52.6728 13.44ZM52.6728 24.6L51.7938 24.1232L51.7909 24.1286L52.6728 24.6ZM49.1928 28.16L48.7085 27.2851L48.7085 27.2851L49.1928 28.16ZM38.8728 28.16L38.3885 29.0349L38.3885 29.0349L38.8728 28.16ZM35.3528 24.6L34.4738 25.0768L34.4772 25.0831L35.3528 24.6ZM35.3528 13.44L36.2284 13.9231L36.2318 13.9168L35.3528 13.44ZM38.8728 9.84L38.3885 8.96511L38.3885 8.96511L38.8728 9.84ZM40.9528 12.8L41.495 13.6403L41.5015 13.636L40.9528 12.8ZM39.0328 15.16L39.9495 15.5596L39.9495 15.5596L39.0328 15.16ZM39.0328 22.84L38.1124 23.2312L38.1161 23.2396L39.0328 22.84ZM40.9528 25.24L40.392 26.0679L40.4072 26.0782L40.4228 26.088L40.9528 25.24ZM47.0728 25.24L47.6149 26.0803L47.6244 26.0742L47.6337 26.0679L47.0728 25.24ZM48.9928 22.84L49.9095 23.2396L49.9131 23.2311L48.9928 22.84ZM48.9928 15.16L49.9095 14.7604L49.9095 14.7604L48.9928 15.16ZM47.0728 12.8L46.512 13.6279L46.5213 13.6342L46.5307 13.6403L47.0728 12.8ZM44.0328 9.6C45.8342 9.6 47.3832 9.98122 48.7085 10.7149L49.6771 8.96511C48.0158 8.04545 46.1248 7.6 44.0328 7.6V9.6ZM48.7085 10.7149C50.0238 11.443 51.0477 12.4971 51.7876 13.9051L53.5581 12.9749C52.6446 11.2363 51.3485 9.89034 49.6771 8.96511L48.7085 10.7149ZM51.7972 13.9231C52.5527 15.2923 52.9528 16.9716 52.9528 19H54.9528C54.9528 16.7084 54.4996 14.6811 53.5484 12.9569L51.7972 13.9231ZM52.9528 19C52.9528 21.0277 52.5529 22.7237 51.7938 24.1232L53.5518 25.0768C54.4994 23.3297 54.9528 21.2923 54.9528 19H52.9528ZM51.7909 24.1286C51.0525 25.5102 50.0283 26.5545 48.7085 27.2851L49.6771 29.0349C51.344 28.1122 52.6398 26.7831 53.5547 25.0714L51.7909 24.1286ZM48.7085 27.2851C47.3832 28.0188 45.8342 28.4 44.0328 28.4V30.4C46.1248 30.4 48.0158 29.9546 49.6771 29.0349L48.7085 27.2851ZM44.0328 28.4C42.2315 28.4 40.6825 28.0188 39.3571 27.2851L38.3885 29.0349C40.0498 29.9546 41.9408 30.4 44.0328 30.4V28.4ZM39.3571 27.2851C38.0344 26.5529 36.9941 25.5048 36.2284 24.1169L34.4772 25.0831C35.4182 26.7885 36.7245 28.1138 38.3885 29.0349L39.3571 27.2851ZM36.2318 24.1232C35.4728 22.7237 35.0728 21.0277 35.0728 19H33.0728C33.0728 21.2923 33.5262 23.3297 34.4738 25.0768L36.2318 24.1232ZM35.0728 19C35.0728 16.9716 35.473 15.2923 36.2284 13.9231L34.4772 12.9569C33.526 14.6811 33.0728 16.7084 33.0728 19H35.0728ZM36.2318 13.9168C36.9989 12.5025 38.039 11.4446 39.3571 10.7149L38.3885 8.96511C36.72 9.88874 35.4134 11.2308 34.4738 12.9632L36.2318 13.9168ZM39.3571 10.7149C40.6825 9.98122 42.2315 9.6 44.0328 9.6V7.6C41.9408 7.6 40.0498 8.04545 38.3885 8.96511L39.3571 10.7149ZM44.0328 10.96C42.6728 10.96 41.4474 11.2793 40.4042 11.964L41.5015 13.636C42.1649 13.2007 42.9928 12.96 44.0328 12.96V10.96ZM40.4107 11.9597C39.3942 12.6155 38.6358 13.5682 38.1161 14.7604L39.9495 15.5596C40.3365 14.6718 40.8581 14.0512 41.4949 13.6403L40.4107 11.9597ZM38.1161 14.7604C37.5926 15.9615 37.3528 17.3867 37.3528 19H39.3528C39.3528 17.5733 39.5664 16.4385 39.9495 15.5596L38.1161 14.7604ZM37.3528 19C37.3528 20.5906 37.5938 22.0107 38.1125 23.2311L39.9531 22.4489C39.5652 21.536 39.3528 20.396 39.3528 19H37.3528ZM38.1161 23.2396C38.6345 24.4289 39.388 25.3878 40.392 26.0679L41.5137 24.4121C40.8643 23.9722 40.3378 23.3311 39.9495 22.4404L38.1161 23.2396ZM40.4228 26.088C41.4634 26.7384 42.6818 27.04 44.0328 27.04V25.04C42.9838 25.04 42.1489 24.8083 41.4828 24.392L40.4228 26.088ZM44.0328 27.04C45.3826 27.04 46.5943 26.7388 47.6149 26.0803L46.5307 24.3997C45.898 24.8079 45.083 25.04 44.0328 25.04V27.04ZM47.6337 26.0679C48.6377 25.3878 49.3911 24.4289 49.9095 23.2396L48.0761 22.4404C47.6879 23.3311 47.1613 23.9722 46.512 24.4121L47.6337 26.0679ZM49.9131 23.2311C50.4319 22.0107 50.6728 20.5906 50.6728 19H48.6728C48.6728 20.396 48.4604 21.536 48.0725 22.4489L49.9131 23.2311ZM50.6728 19C50.6728 17.3867 50.4331 15.9615 49.9095 14.7604L48.0761 15.5596C48.4592 16.4385 48.6728 17.5733 48.6728 19H50.6728ZM49.9095 14.7604C49.3898 13.5682 48.6314 12.6155 47.6149 11.9597L46.5307 13.6403C47.1676 14.0512 47.6891 14.6718 48.0761 15.5596L49.9095 14.7604ZM47.6337 11.9721C46.6105 11.279 45.3918 10.96 44.0328 10.96V12.96C45.0739 12.96 45.8818 13.201 46.512 13.6279L47.6337 11.9721ZM57.7372 29H56.7372V30H57.7372V29ZM57.7372 9V8H56.7372V9H57.7372ZM61.5372 9L62.5357 8.94623L62.4848 8H61.5372V9ZM61.8172 14.2L61.1101 14.9071L62.9561 16.7531L62.8157 14.1462L61.8172 14.2ZM61.2572 13.64L60.3063 13.3304L60.1165 13.9135L60.5501 14.3471L61.2572 13.64ZM62.8572 10.8L62.1253 10.1186L62.1244 10.1195L62.8572 10.8ZM65.3772 9.12L65.0457 8.1765L65.0375 8.17945L65.3772 9.12ZM72.2972 9.44L71.85 10.3344L71.8626 10.3408L71.8755 10.3467L72.2972 9.44ZM75.0172 11.88L75.871 11.3594L75.871 11.3594L75.0172 11.88ZM76.0172 29V30H77.0172V29H76.0172ZM71.7372 29H70.7372V30H71.7372V29ZM70.4972 13.28L69.8022 13.999L69.8143 14.0108L69.8269 14.0221L70.4972 13.28ZM64.8972 12.76L65.3327 13.6602L65.3444 13.6545L65.3558 13.6486L64.8972 12.76ZM62.8172 14.72L61.9664 14.1945L61.9607 14.2037L61.9553 14.213L62.8172 14.72ZM62.0172 29V30H63.0172V29H62.0172ZM58.7372 29V9H56.7372V29H58.7372ZM57.7372 10H61.5372V8H57.7372V10ZM60.5386 9.05377L60.8186 14.2538L62.8157 14.1462L62.5357 8.94623L60.5386 9.05377ZM62.5243 13.4929L61.9643 12.9329L60.5501 14.3471L61.1101 14.9071L62.5243 13.4929ZM62.2081 13.9496C62.5446 12.9159 63.0119 12.103 63.59 11.4805L62.1244 10.1195C61.3158 10.9903 60.7164 12.0708 60.3063 13.3304L62.2081 13.9496ZM63.5891 11.4814C64.2047 10.8202 64.9117 10.3513 65.7168 10.0606L65.0375 8.17945C63.9227 8.58203 62.9496 9.23316 62.1253 10.1186L63.5891 11.4814ZM65.7087 10.0635C66.584 9.7559 67.5116 9.6 68.4972 9.6V7.6C67.2961 7.6 66.1437 7.79077 65.0457 8.17654L65.7087 10.0635ZM68.4972 9.6C69.7754 9.6 70.8858 9.85233 71.85 10.3344L72.7444 8.54557C71.4686 7.90767 70.0456 7.6 68.4972 7.6V9.6ZM71.8755 10.3467C72.8408 10.7957 73.5981 11.4735 74.1634 12.4006L75.871 11.3594C75.1029 10.0998 74.0469 9.15096 72.7189 8.53328L71.8755 10.3467ZM74.1634 12.4006C74.709 13.2954 75.0172 14.4877 75.0172 16.04H77.0172C77.0172 14.2323 76.6587 12.6513 75.871 11.3594L74.1634 12.4006ZM75.0172 16.04V29H77.0172V16.04H75.0172ZM76.0172 28H71.7372V30H76.0172V28ZM72.7372 29V17.36H70.7372V29H72.7372ZM72.7372 17.36C72.7372 15.3077 72.3185 13.5776 71.1675 12.5379L69.8269 14.0221C70.3292 14.4758 70.7372 15.4656 70.7372 17.36H72.7372ZM71.1922 12.561C70.1859 11.5882 68.9142 11.12 67.4572 11.12V13.12C68.4535 13.12 69.2085 13.4251 69.8022 13.999L71.1922 12.561ZM67.4572 11.12C66.4085 11.12 65.3987 11.3758 64.4385 11.8714L65.3558 13.6486C66.049 13.2908 66.7459 13.12 67.4572 13.12V11.12ZM64.4616 11.8598C63.4377 12.3553 62.61 13.1525 61.9664 14.1945L63.668 15.2455C64.1444 14.4742 64.7033 13.9647 65.3327 13.6602L64.4616 11.8598ZM61.9553 14.213C61.3 15.3269 61.0172 16.7363 61.0172 18.36H63.0172C63.0172 16.9437 63.2677 15.9264 63.6791 15.227L61.9553 14.213ZM61.0172 18.36V29H63.0172V18.36H61.0172ZM62.0172 28H57.7372V30H62.0172V28ZM80.9028 4.96L80.1957 5.66711L80.2153 5.68673L80.236 5.70524L80.9028 4.96ZM80.9028 0.999998L80.236 0.254756L80.226 0.263737L80.2162 0.272985L80.9028 0.999998ZM85.1428 0.999998L84.4562 1.72701L84.466 1.73626L84.476 1.74524L85.1428 0.999998ZM85.1428 4.96L85.8294 5.68701L85.8306 5.68595L85.1428 4.96ZM85.1828 9H86.1828V8H85.1828V9ZM84.2228 34.8L83.3838 34.2558L83.3754 34.2689L83.3673 34.2822L84.2228 34.8ZM81.7828 36.96L81.3947 36.0383L81.3859 36.0421L81.7828 36.96ZM76.1428 37.24L75.8368 38.192L75.8368 38.192L76.1428 37.24ZM74.2628 36.28L73.284 36.0751L73.1572 36.6812L73.6432 37.0649L74.2628 36.28ZM74.9828 32.84L75.6336 32.0807L74.3503 30.9808L74.004 32.6351L74.9828 32.84ZM76.3428 33.64L76.7309 32.7184L76.7226 32.7149L76.7142 32.7115L76.3428 33.64ZM80.1028 33.12L79.3957 32.4129L79.378 32.4306L79.3613 32.4491L80.1028 33.12ZM80.9028 9V8H79.9028V9H80.9028ZM83.0628 4.64C82.2833 4.64 81.8342 4.45148 81.5696 4.21476L80.236 5.70524C80.9848 6.37518 81.9757 6.64 83.0628 6.64V4.64ZM81.6099 4.25289C81.3628 4.00578 81.1828 3.62 81.1828 2.96H79.1828C79.1828 4.00667 79.4828 4.95422 80.1957 5.66711L81.6099 4.25289ZM81.1828 2.96C81.1828 2.29699 81.3637 1.94018 81.5894 1.72701L80.2162 0.272985C79.4819 0.96648 79.1828 1.91634 79.1828 2.96H81.1828ZM81.5696 1.74524C81.8342 1.50852 82.2833 1.32 83.0628 1.32V-0.68C81.9757 -0.68 80.9848 -0.415185 80.236 0.254756L81.5696 1.74524ZM83.0628 1.32C83.8107 1.32 84.2218 1.50565 84.4562 1.72701L85.8294 0.272984C85.1038 -0.412318 84.1282 -0.68 83.0628 -0.68V1.32ZM84.476 1.74524C84.7188 1.96245 84.9028 2.31321 84.9028 2.96H86.9028C86.9028 1.90012 86.5802 0.944215 85.8096 0.254757L84.476 1.74524ZM84.9028 2.96C84.9028 3.60435 84.7193 3.98372 84.4551 4.23405L85.8306 5.68595C86.5797 4.97628 86.9028 4.02231 86.9028 2.96H84.9028ZM84.4562 4.23299C84.2218 4.45435 83.8107 4.64 83.0628 4.64V6.64C84.1282 6.64 85.1038 6.37232 85.8294 5.68701L84.4562 4.23299ZM84.1828 9V30.76H86.1828V9H84.1828ZM84.1828 30.76C84.1828 32.3561 83.8814 33.4888 83.3838 34.2558L85.0618 35.3442C85.8442 34.1379 86.1828 32.5772 86.1828 30.76H84.1828ZM83.3673 34.2822C82.8543 35.1297 82.1982 35.7001 81.3948 36.0384L82.1709 37.8816C83.3941 37.3666 84.3646 36.4969 85.0783 35.3178L83.3673 34.2822ZM81.3859 36.0421C80.5298 36.4124 79.6121 36.6 78.6228 36.6V38.6C79.8735 38.6 81.0625 38.361 82.1797 37.8779L81.3859 36.0421ZM78.6228 36.6C77.8042 36.6 77.0825 36.4917 76.4488 36.288L75.8368 38.192C76.6964 38.4683 77.6281 38.6 78.6228 38.6V36.6ZM76.4488 36.288C75.7921 36.0769 75.2777 35.8071 74.8825 35.4951L73.6432 37.0649C74.2613 37.5529 75.0001 37.9231 75.8368 38.192L76.4488 36.288ZM75.2416 36.4849L75.9616 33.0449L74.004 32.6351L73.284 36.0751L75.2416 36.4849ZM74.332 33.5993C74.8012 34.0015 75.353 34.3211 75.9714 34.5685L76.7142 32.7115C76.2659 32.5322 75.911 32.3185 75.6336 32.0807L74.332 33.5993ZM75.9548 34.5616C76.6027 34.8345 77.3112 34.96 78.0628 34.96V32.96C77.5345 32.96 77.0962 32.8722 76.7309 32.7184L75.9548 34.5616ZM78.0628 34.96C79.158 34.96 80.1224 34.5888 80.8443 33.7909L79.3613 32.4491C79.0699 32.7712 78.6743 32.96 78.0628 32.96V34.96ZM80.8099 33.8271C81.6284 33.0087 81.9028 31.7513 81.9028 30.36H79.9028C79.9028 31.582 79.6439 32.1647 79.3957 32.4129L80.8099 33.8271ZM81.9028 30.36V9H79.9028V30.36H81.9028ZM80.9028 10H85.1828V8H80.9028V10ZM93.7594 28.68L93.3574 29.5957L93.3655 29.5991L93.7594 28.68ZM91.1194 26.36L90.2714 26.89L90.2714 26.89L91.1194 26.36ZM90.1194 9V8H89.1194V9H90.1194ZM94.3994 9H95.3994V8H94.3994V9ZM95.5594 24.88L94.8918 25.6246L94.8991 25.6311L94.9064 25.6374L95.5594 24.88ZM100.719 25.56L101.048 26.5045L101.059 26.5005L101.07 26.4963L100.719 25.56ZM102.439 24.48L103.127 25.206L103.137 25.1967L103.146 25.1871L102.439 24.48ZM103.599 22.56L102.664 22.2053L102.659 22.2196L102.654 22.234L103.599 22.56ZM104.039 9V8H103.039V9H104.039ZM108.319 9H109.319V8H108.319V9ZM108.319 29V30H109.319V29H108.319ZM104.559 29L103.561 29.0616L103.619 30H104.559V29ZM104.359 25.76L105.357 25.6984L105.146 22.2722L103.484 25.2759L104.359 25.76ZM101.559 28.52L102.007 29.4144L101.559 28.52ZM97.3994 28.4C96.2182 28.4 95.14 28.1837 94.1533 27.7609L93.3655 29.5991C94.6187 30.1363 95.9672 30.4 97.3994 30.4V28.4ZM94.1614 27.7644C93.2622 27.3696 92.5335 26.7358 91.9674 25.83L90.2714 26.89C91.0386 28.1175 92.0699 29.0304 93.3574 29.5956L94.1614 27.7644ZM91.9674 25.83C91.4295 24.9694 91.1194 23.784 91.1194 22.2H89.1194C89.1194 24.0294 89.4759 25.6172 90.2714 26.89L91.9674 25.83ZM91.1194 22.2V9H89.1194V22.2H91.1194ZM90.1194 10H94.3994V8H90.1194V10ZM93.3994 9V21.12H95.3994V9H93.3994ZM93.3994 21.12C93.3994 23.0179 93.7937 24.6401 94.8918 25.6246L96.2269 24.1354C95.7783 23.7333 95.3994 22.8488 95.3994 21.12H93.3994ZM94.9064 25.6374C95.9174 26.5089 97.2592 26.88 98.7994 26.88V24.88C97.5662 24.88 96.748 24.5844 96.2123 24.1226L94.9064 25.6374ZM98.7994 26.88C99.5749 26.88 100.326 26.7556 101.048 26.5045L100.391 24.6155C99.886 24.7911 99.3572 24.88 98.7994 24.88V26.88ZM101.07 26.4963C101.838 26.2084 102.526 25.7759 103.127 25.206L101.752 23.754C101.34 24.1441 100.88 24.4316 100.368 24.6237L101.07 26.4963ZM103.146 25.1871C103.775 24.5589 104.236 23.7824 104.545 22.886L102.654 22.234C102.43 22.8843 102.117 23.3878 101.732 23.7729L103.146 25.1871ZM104.534 22.9147C104.88 22.003 105.039 20.9712 105.039 19.84H103.039C103.039 20.7888 102.905 21.5703 102.664 22.2053L104.534 22.9147ZM105.039 19.84V9H103.039V19.84H105.039ZM104.039 10H108.319V8H104.039V10ZM107.319 9V29H109.319V9H107.319ZM108.319 28H104.559V30H108.319V28ZM105.557 28.9384L105.357 25.6984L103.361 25.8216L103.561 29.0616L105.557 28.9384ZM103.484 25.2759C102.879 26.3694 102.088 27.1376 101.112 27.6256L102.007 29.4144C103.377 28.729 104.453 27.6573 105.234 26.2441L103.484 25.2759ZM101.112 27.6256C100.105 28.1292 98.8777 28.4 97.3994 28.4V30.4C99.121 30.4 100.667 30.0841 102.007 29.4144L101.112 27.6256ZM113.406 29H112.406V30H113.406V29ZM113.406 9V8H112.406V9H113.406ZM117.206 9L118.204 8.94623L118.154 8H117.206V9ZM117.486 14.2L116.779 14.9071L118.625 16.7531L118.484 14.1462L117.486 14.2ZM116.926 13.64L115.975 13.3304L115.785 13.9135L116.219 14.3471L116.926 13.64ZM118.526 10.8L117.794 10.1186L117.793 10.1195L118.526 10.8ZM121.046 9.12L120.714 8.1765L120.706 8.17945L121.046 9.12ZM127.966 9.44L127.519 10.3344L127.531 10.3408L127.544 10.3467L127.966 9.44ZM130.686 11.88L131.54 11.3594L131.54 11.3594L130.686 11.88ZM131.686 29V30H132.686V29H131.686ZM127.406 29H126.406V30H127.406V29ZM126.166 13.28L125.471 13.999L125.483 14.0108L125.496 14.0221L126.166 13.28ZM120.566 12.76L121.001 13.6602L121.013 13.6545L121.025 13.6486L120.566 12.76ZM118.486 14.72L117.635 14.1945L117.629 14.2037L117.624 14.213L118.486 14.72ZM117.686 29V30H118.686V29H117.686ZM114.406 29V9H112.406V29H114.406ZM113.406 10H117.206V8H113.406V10ZM116.207 9.05377L116.487 14.2538L118.484 14.1462L118.204 8.94623L116.207 9.05377ZM118.193 13.4929L117.633 12.9329L116.219 14.3471L116.779 14.9071L118.193 13.4929ZM117.877 13.9496C118.213 12.9159 118.681 12.103 119.259 11.4805L117.793 10.1195C116.985 10.9903 116.385 12.0708 115.975 13.3304L117.877 13.9496ZM119.258 11.4814C119.873 10.8202 120.58 10.3513 121.386 10.0606L120.706 8.17945C119.591 8.58203 118.618 9.23316 117.794 10.1186L119.258 11.4814ZM121.377 10.0635C122.253 9.7559 123.18 9.6 124.166 9.6V7.6C122.965 7.6 121.812 7.79077 120.714 8.17654L121.377 10.0635ZM124.166 9.6C125.444 9.6 126.555 9.85233 127.519 10.3344L128.413 8.54557C127.137 7.90767 125.714 7.6 124.166 7.6V9.6ZM127.544 10.3467C128.51 10.7957 129.267 11.4735 129.832 12.4006L131.54 11.3594C130.772 10.0998 129.716 9.15096 128.388 8.53328L127.544 10.3467ZM129.832 12.4006C130.378 13.2954 130.686 14.4877 130.686 16.04H132.686C132.686 14.2323 132.327 12.6513 131.54 11.3594L129.832 12.4006ZM130.686 16.04V29H132.686V16.04H130.686ZM131.686 28H127.406V30H131.686V28ZM128.406 29V17.36H126.406V29H128.406ZM128.406 17.36C128.406 15.3077 127.987 13.5776 126.836 12.5379L125.496 14.0221C125.998 14.4758 126.406 15.4656 126.406 17.36H128.406ZM126.861 12.561C125.855 11.5882 124.583 11.12 123.126 11.12V13.12C124.122 13.12 124.877 13.4251 125.471 13.999L126.861 12.561ZM123.126 11.12C122.077 11.12 121.067 11.3758 120.107 11.8714L121.025 13.6486C121.718 13.2908 122.415 13.12 123.126 13.12V11.12ZM120.13 11.8598C119.106 12.3553 118.279 13.1525 117.635 14.1945L119.337 15.2455C119.813 14.4742 120.372 13.9647 121.001 13.6602L120.13 11.8598ZM117.624 14.213C116.969 15.3269 116.686 16.7363 116.686 18.36H118.686C118.686 16.9437 118.936 15.9264 119.348 15.227L117.624 14.213ZM116.686 18.36V29H118.686V18.36H116.686ZM117.686 28H113.406V30H117.686V28ZM139.732 28.16L139.205 29.0099L139.212 29.0145L139.732 28.16ZM136.572 24.6L137.466 24.1528L137.466 24.1528L136.572 24.6ZM136.652 13.36L135.77 12.8886L135.77 12.8886L136.652 13.36ZM139.972 9.84L140.471 10.7062L140.477 10.7026L140.484 10.6989L139.972 9.84ZM148.852 10L148.229 10.7826L148.229 10.7826L148.852 10ZM151.212 13.64L151.887 14.3772L152.334 13.9672L152.178 13.3813L151.212 13.64ZM150.732 14.08H149.732V16.3532L151.407 14.8172L150.732 14.08ZM150.732 -9.53674e-07V-1H149.732V-9.53674e-07H150.732ZM155.012 -9.53674e-07H156.012V-1H155.012V-9.53674e-07ZM155.012 29V30H156.012V29H155.012ZM151.212 29L150.213 29.0587L150.269 30H151.212V29ZM150.892 23.56L150.963 22.5625L149.826 22.4814L149.893 23.6187L150.892 23.56ZM151.452 23.6L152.44 23.7537L152.607 22.68L151.523 22.6025L151.452 23.6ZM150.132 26.72L150.908 27.3506L150.912 27.3448L150.917 27.3389L150.132 26.72ZM147.532 28.72L147.94 29.6329L147.951 29.628L147.532 28.72ZM148.132 25.08L147.553 24.2645L147.553 24.2645L148.132 25.08ZM150.052 22.6L149.131 22.2089L149.131 22.2089L150.052 22.6ZM150.052 15.2L149.139 15.6084L149.143 15.6175L150.052 15.2ZM148.132 12.88L147.577 13.712L147.583 13.7162L147.589 13.7203L148.132 12.88ZM141.172 13.92L141.951 14.5468L141.951 14.5468L141.172 13.92ZM141.132 24.12L140.338 24.7281L140.344 24.7363L141.132 24.12ZM144.252 28.4C142.774 28.4 141.448 28.0332 140.251 27.3055L139.212 29.0145C140.735 29.9401 142.422 30.4 144.252 30.4V28.4ZM140.258 27.3101C139.098 26.5909 138.165 25.5513 137.466 24.1528L135.677 25.0472C136.525 26.7421 137.698 28.0758 139.205 29.0099L140.258 27.3101ZM137.466 24.1528C136.777 22.7752 136.412 21.0825 136.412 19.04H134.412C134.412 21.3175 134.819 23.3314 135.677 25.0472L137.466 24.1528ZM136.412 19.04C136.412 16.92 136.803 15.1983 137.533 13.8314L135.77 12.8886C134.847 14.615 134.412 16.68 134.412 19.04H136.412ZM137.533 13.8314C138.281 12.4331 139.262 11.404 140.471 10.7062L139.472 8.97381C137.908 9.87596 136.676 11.1935 135.77 12.8886L137.533 13.8314ZM140.484 10.6989C141.712 9.96691 143.054 9.6 144.532 9.6V7.6C142.703 7.6 141.005 8.05976 139.459 8.98105L140.484 10.6989ZM144.532 9.6C146.045 9.6 147.257 10.0092 148.229 10.7826L149.474 9.2174C148.1 8.12409 146.431 7.6 144.532 7.6V9.6ZM148.229 10.7826C149.229 11.5782 149.899 12.6054 150.246 13.8987L152.178 13.3813C151.724 11.6879 150.821 10.2885 149.474 9.2174L148.229 10.7826ZM150.536 12.9028L150.056 13.3428L151.407 14.8172L151.887 14.3772L150.536 12.9028ZM151.732 14.08V-9.53674e-07H149.732V14.08H151.732ZM150.732 0.999999H155.012V-1H150.732V0.999999ZM154.012 -9.53674e-07V29H156.012V-9.53674e-07H154.012ZM155.012 28H151.212V30H155.012V28ZM152.21 28.9413L151.89 23.5013L149.893 23.6187L150.213 29.0587L152.21 28.9413ZM150.82 24.5575L151.38 24.5975L151.523 22.6025L150.963 22.5625L150.82 24.5575ZM150.463 23.4463C150.301 24.4911 149.924 25.3674 149.346 26.1011L150.917 27.3389C151.726 26.3126 152.229 25.1089 152.44 23.7537L150.463 23.4463ZM149.355 26.0894C148.762 26.8192 148.02 27.3933 147.112 27.812L147.951 29.628C149.123 29.0867 150.114 28.3274 150.908 27.3506L149.355 26.0894ZM147.123 27.8072C146.246 28.1998 145.292 28.4 144.252 28.4V30.4C145.557 30.4 146.791 30.1469 147.94 29.6328L147.123 27.8072ZM145.172 26.96C146.497 26.96 147.693 26.6176 148.71 25.8955L147.553 24.2645C146.917 24.7157 146.139 24.96 145.172 24.96V26.96ZM148.71 25.8955C149.709 25.187 150.457 24.2032 150.972 22.9911L149.131 22.2089C148.74 23.1301 148.208 23.7996 147.553 24.2645L148.71 25.8955ZM150.972 22.9911C151.491 21.7707 151.732 20.3506 151.732 18.76H149.732C149.732 20.156 149.519 21.296 149.131 22.2089L150.972 22.9911ZM151.732 18.76C151.732 17.2677 151.488 15.9311 150.96 14.7825L149.143 15.6175C149.522 16.4422 149.732 17.4789 149.732 18.76H151.732ZM150.964 14.7916C150.442 13.6249 149.683 12.6912 148.674 12.0397L147.589 13.7203C148.233 14.1355 148.754 14.7485 149.139 15.6084L150.964 14.7916ZM148.686 12.0479C147.704 11.3933 146.573 11.08 145.332 11.08V13.08C146.223 13.08 146.959 13.3 147.577 13.712L148.686 12.0479ZM145.332 11.08C143.288 11.08 141.596 11.7968 140.392 13.2932L141.951 14.5468C142.72 13.5898 143.802 13.08 145.332 13.08V11.08ZM140.392 13.2932C139.218 14.7536 138.692 16.6961 138.692 19H140.692C140.692 16.9839 141.152 15.5398 141.951 14.5468L140.392 13.2932ZM138.692 19C138.692 21.3 139.202 23.246 140.338 24.7281L141.925 23.5119C141.141 22.4874 140.692 21.02 140.692 19H138.692ZM140.344 24.7363C141.517 26.2347 143.17 26.96 145.172 26.96V24.96C143.706 24.96 142.666 24.4586 141.919 23.5037L140.344 24.7363ZM163.57 28.16L163.092 29.0385L163.092 29.0385L163.57 28.16ZM160.01 24.6L159.124 25.0651L159.129 25.0742L159.134 25.0831L160.01 24.6ZM160.01 13.44L159.131 12.9632L159.128 12.9686L160.01 13.44ZM163.53 9.84L163.045 8.96511L163.045 8.96511L163.53 9.84ZM173.57 9.8L173.063 10.6619L173.063 10.6619L173.57 9.8ZM176.69 13.08L175.802 13.5408L175.802 13.5408L176.69 13.08ZM177.73 19.16L178.728 19.2224L178.728 19.2224L177.73 19.16ZM177.61 20.28V21.28H178.457L178.596 20.4444L177.61 20.28ZM161.53 20.28H160.53V21.28H161.53V20.28ZM161.53 17V16H160.53V17H161.53ZM175.73 17L176.019 17.9573L175.73 16V17ZM173.61 17.64H172.61V18.9865L173.899 18.5973L173.61 17.64ZM172.25 13.48L171.513 14.1567L171.523 14.1666L172.25 13.48ZM165.53 12.8L165 11.952L165 11.952L165.53 12.8ZM163.57 15.2L164.486 15.5996L164.49 15.5911L163.57 15.2ZM163.61 22.84L162.702 23.2591L162.702 23.2591L163.61 22.84ZM165.65 25.2L165.131 26.0552L165.131 26.0552L165.65 25.2ZM172.01 25.24L172.532 26.0926L172.532 26.0926L172.01 25.24ZM173.97 23.12L174.395 22.2152L173.532 21.809L173.086 22.6521L173.97 23.12ZM177.37 24.72L178.264 25.1672L178.722 24.2512L177.795 23.8152L177.37 24.72ZM175.41 27.24L176.065 27.9957L176.066 27.9941L175.41 27.24ZM168.85 28.4C166.99 28.4 165.399 28.0168 164.047 27.2815L163.092 29.0385C164.78 29.9565 166.709 30.4 168.85 30.4V28.4ZM164.047 27.2815C162.699 26.548 161.648 25.5002 160.885 24.1169L159.134 25.0831C160.078 26.7931 161.401 28.1187 163.092 29.0385L164.047 27.2815ZM160.895 24.1349C160.158 22.7327 159.77 21.0325 159.77 19H157.77C157.77 21.2875 158.208 23.3206 159.124 25.0651L160.895 24.1349ZM159.77 19C159.77 16.9669 160.158 15.2831 160.892 13.9114L159.128 12.9686C158.208 14.6902 157.77 16.7131 157.77 19H159.77ZM160.889 13.9168C161.656 12.5025 162.696 11.4446 164.014 10.7149L163.045 8.96511C161.377 9.88874 160.07 11.2308 159.131 12.9632L160.889 13.9168ZM164.014 10.7149C165.343 9.97897 166.867 9.6 168.61 9.6V7.6C166.566 7.6 164.703 8.04769 163.045 8.96511L164.014 10.7149ZM168.61 9.6C170.419 9.6 171.888 9.97124 173.063 10.6619L174.077 8.93807C172.531 8.02875 170.693 7.6 168.61 7.6V9.6ZM173.063 10.6619C174.262 11.3676 175.17 12.3227 175.802 13.5408L177.577 12.6192C176.77 11.064 175.597 9.83236 174.077 8.93807L173.063 10.6619ZM175.802 13.5408C176.439 14.768 176.77 16.1799 176.77 17.8H178.77C178.77 15.9001 178.38 14.1654 177.577 12.6192L175.802 13.5408ZM176.77 17.8C176.77 18.2617 176.757 18.6941 176.732 19.0976L178.728 19.2224C178.756 18.7726 178.77 18.2983 178.77 17.8H176.77ZM176.732 19.0976C176.706 19.5001 176.67 19.838 176.623 20.1156L178.596 20.4444C178.656 20.082 178.7 19.6732 178.728 19.2224L176.732 19.0976ZM177.61 19.28H161.53V21.28H177.61V19.28ZM162.53 20.28V17H160.53V20.28H162.53ZM161.53 18H175.73V16H161.53V18ZM175.441 16.0427L173.321 16.6827L173.899 18.5973L176.019 17.9573L175.441 16.0427ZM174.61 17.64C174.61 15.6679 174.115 13.999 172.977 12.7934L171.523 14.1666C172.197 14.881 172.61 15.9854 172.61 17.64H174.61ZM172.986 12.8034C171.857 11.5744 170.33 11 168.53 11V13C169.876 13 170.829 13.4122 171.513 14.1566L172.986 12.8034ZM168.53 11C167.222 11 166.033 11.306 165 11.952L166.06 13.648C166.733 13.2273 167.544 13 168.53 13V11ZM165 11.952C163.947 12.6099 163.17 13.5831 162.649 14.8089L164.49 15.5911C164.876 14.6836 165.406 14.0568 166.06 13.648L165 11.952ZM162.653 14.8004C162.129 16.0015 161.89 17.4267 161.89 19.04H163.89C163.89 17.6133 164.103 16.4785 164.486 15.5996L162.653 14.8004ZM161.89 19.04C161.89 20.6359 162.146 22.0542 162.702 23.2591L164.518 22.4209C164.114 21.5458 163.89 20.4308 163.89 19.04H161.89ZM162.702 23.2591C163.255 24.4587 164.062 25.407 165.131 26.0552L166.168 24.3448C165.477 23.9263 164.924 23.3013 164.518 22.4209L162.702 23.2591ZM165.131 26.0552C166.192 26.698 167.418 27 168.77 27V25C167.722 25 166.867 24.7686 166.168 24.3448L165.131 26.0552ZM168.77 27C170.221 27 171.5 26.7253 172.532 26.0926L171.487 24.3874C170.866 24.768 169.985 25 168.77 25V27ZM172.532 26.0926C173.521 25.4869 174.295 24.6433 174.853 23.5879L173.086 22.6521C172.685 23.4101 172.152 23.9798 171.487 24.3874L172.532 26.0926ZM173.544 24.0248L176.944 25.6248L177.795 23.8152L174.395 22.2152L173.544 24.0248ZM176.475 24.2728C176.055 25.1134 175.483 25.8498 174.753 26.4859L176.066 27.9941C176.989 27.1902 177.724 26.2466 178.264 25.1672L176.475 24.2728ZM174.755 26.4843C174.065 27.0823 173.223 27.5547 172.213 27.8913L172.846 29.7887C174.076 29.3786 175.155 28.7843 176.065 27.9957L174.755 26.4843ZM172.213 27.8913C171.208 28.2266 170.089 28.4 168.85 28.4V30.4C170.277 30.4 171.612 30.2001 172.846 29.7887L172.213 27.8913ZM194.149 9V8H193.443L193.207 8.6644L194.149 9ZM198.629 9L199.558 9.36979L200.103 8H198.629V9ZM190.669 29V30H191.347L191.598 29.3698L190.669 29ZM185.989 29L185.06 29.3714L185.312 30H185.989V29ZM177.989 9V8H176.512L177.06 9.37139L177.989 9ZM182.669 9L183.613 8.67058L183.379 8H182.669V9ZM188.349 25.28L187.405 25.6094L188.339 28.2874L189.291 25.6156L188.349 25.28ZM194.149 10H198.629V8H194.149V10ZM197.7 8.63021L189.74 28.6302L191.598 29.3698L199.558 9.36979L197.7 8.63021ZM190.669 28H185.989V30H190.669V28ZM186.917 28.6286L178.917 8.62861L177.06 9.37139L185.06 29.3714L186.917 28.6286ZM177.989 10H182.669V8H177.989V10ZM181.725 9.32942L187.405 25.6094L189.293 24.9506L183.613 8.67058L181.725 9.32942ZM189.291 25.6156L195.091 9.3356L193.207 8.6644L187.407 24.9444L189.291 25.6156ZM202.107 24.4L201.4 25.1071L201.418 25.1248L201.436 25.1415L202.107 24.4ZM202.107 28.6L201.418 27.8759L201.409 27.8843L201.4 27.8929L202.107 28.6ZM197.707 28.6L197 29.3071L197.009 29.3157L197.018 29.3241L197.707 28.6ZM197.707 24.4L198.396 25.125L198.397 25.1241L197.707 24.4ZM199.947 24.6C200.646 24.6 201.091 24.7983 201.4 25.1071L202.814 23.6929C202.056 22.935 201.062 22.6 199.947 22.6V24.6ZM201.436 25.1415C201.752 25.4268 201.947 25.8313 201.947 26.48H203.947C203.947 25.3687 203.583 24.3866 202.778 23.6585L201.436 25.1415ZM201.947 26.48C201.947 27.1277 201.751 27.558 201.418 27.8759L202.797 29.3241C203.583 28.5753 203.947 27.5923 203.947 26.48H201.947ZM201.4 27.8929C201.091 28.2017 200.646 28.4 199.947 28.4V30.4C201.062 30.4 202.056 30.065 202.814 29.3071L201.4 27.8929ZM199.947 28.4C199.214 28.4 198.734 28.1967 198.397 27.8759L197.018 29.3241C197.801 30.0699 198.813 30.4 199.947 30.4V28.4ZM198.414 27.8929C198.1 27.5784 197.907 27.1425 197.907 26.48H195.907C195.907 27.5775 196.248 28.555 197 29.3071L198.414 27.8929ZM197.907 26.48C197.907 25.816 198.1 25.4063 198.396 25.125L197.018 23.675C196.248 24.4071 195.907 25.384 195.907 26.48H197.907ZM198.397 25.1241C198.734 24.8033 199.214 24.6 199.947 24.6V22.6C198.813 22.6 197.801 22.9301 197.018 23.6759L198.397 25.1241ZM212.965 3.12H213.965V1.80106L212.695 2.15713L212.965 3.12ZM213.725 25.16L213.058 25.9052L213.067 25.9137L213.077 25.9219L213.725 25.16ZM217.725 25.52L218.096 26.4485L218.116 26.4406L218.135 26.4319L217.725 25.52ZM219.205 24.56L220.16 24.2659L219.705 22.7851L218.543 23.8102L219.205 24.56ZM220.165 27.68L220.821 28.4346L221.312 28.0077L221.12 27.3859L220.165 27.68ZM217.885 28.96L218.201 29.9087L218.209 29.9059L218.218 29.903L217.885 28.96ZM211.765 28.84L212.127 27.908L212.127 27.908L211.765 28.84ZM209.525 27.04L208.677 27.57L208.68 27.5761L208.684 27.5821L209.525 27.04ZM208.685 23.72H207.685V23.7298L207.685 23.7396L208.685 23.72ZM208.685 4.32L208.415 3.35713L207.685 3.56181V4.32H208.685ZM219.845 9H220.845V8H219.845V9ZM219.845 12.36V13.36H220.845V12.36H219.845ZM204.845 12.36H203.845V13.36H204.845V12.36ZM204.845 9V8H203.845V9H204.845ZM211.965 3.12V23H213.965V3.12H211.965ZM211.965 23C211.965 24.1403 212.258 25.1897 213.058 25.9052L214.391 24.4148C214.178 24.2237 213.965 23.833 213.965 23H211.965ZM213.077 25.9219C213.834 26.5653 214.79 26.84 215.845 26.84V24.84C215.139 24.84 214.682 24.6614 214.372 24.3981L213.077 25.9219ZM215.845 26.84C216.661 26.84 217.419 26.7194 218.096 26.4485L217.353 24.5915C216.964 24.7473 216.469 24.84 215.845 24.84V26.84ZM218.135 26.4319C218.763 26.1494 219.34 25.7739 219.866 25.3098L218.543 23.8102C218.162 24.1461 217.753 24.4106 217.314 24.6081L218.135 26.4319ZM218.249 24.8541L219.209 27.9741L221.12 27.3859L220.16 24.2659L218.249 24.8541ZM219.509 26.9254C219.006 27.3625 218.361 27.7314 217.552 28.017L218.218 29.903C219.222 29.5486 220.097 29.0641 220.821 28.4346L219.509 26.9254ZM217.568 28.0113C216.807 28.2652 215.929 28.4 214.925 28.4V30.4C216.107 30.4 217.203 30.2415 218.201 29.9087L217.568 28.0113ZM214.925 28.4C213.888 28.4 212.959 28.2316 212.127 27.908L211.402 29.772C212.49 30.1951 213.668 30.4 214.925 30.4V28.4ZM212.127 27.908C211.354 27.6072 210.778 27.1388 210.365 26.4979L208.684 27.5821C209.338 28.5945 210.256 29.3261 211.402 29.772L212.127 27.908ZM210.373 26.51C209.963 25.8548 209.709 24.941 209.684 23.7004L207.685 23.7396C207.714 25.219 208.02 26.5186 208.677 27.57L210.373 26.51ZM209.685 23.72V4.32H207.685V23.72H209.685ZM208.955 5.28287L213.235 4.08287L212.695 2.15713L208.415 3.35713L208.955 5.28287ZM218.845 9V12.36H220.845V9H218.845ZM219.845 11.36H204.845V13.36H219.845V11.36ZM205.845 12.36V9H203.845V12.36H205.845ZM204.845 10H219.845V8H204.845V10ZM225.998 28.16L225.52 29.0385L225.52 29.0385L225.998 28.16ZM222.438 24.6L221.553 25.0651L221.557 25.0742L221.562 25.0831L222.438 24.6ZM222.438 13.44L221.559 12.9632L221.556 12.9686L222.438 13.44ZM225.958 9.84L225.473 8.96511L225.473 8.96511L225.958 9.84ZM235.998 9.8L235.491 10.6619L235.491 10.6619L235.998 9.8ZM239.118 13.08L238.23 13.5408L238.23 13.5408L239.118 13.08ZM240.158 19.16L241.156 19.2224L241.156 19.2224L240.158 19.16ZM240.038 20.28V21.28H240.885L241.024 20.4444L240.038 20.28ZM223.958 20.28H222.958V21.28H223.958V20.28ZM223.958 17V16H222.958V17H223.958ZM238.158 17L238.447 17.9573L238.158 16V17ZM236.038 17.64H235.038V18.9865L236.327 18.5973L236.038 17.64ZM234.678 13.48L233.941 14.1567L233.951 14.1666L234.678 13.48ZM227.958 12.8L227.428 11.952L227.428 11.952L227.958 12.8ZM225.998 15.2L226.915 15.5996L226.918 15.5911L225.998 15.2ZM226.038 22.84L225.13 23.2591L225.13 23.2591L226.038 22.84ZM228.078 25.2L227.56 26.0552L227.56 26.0552L228.078 25.2ZM234.438 25.24L234.96 26.0926L234.96 26.0926L234.438 25.24ZM236.398 23.12L236.824 22.2152L235.96 21.809L235.514 22.6521L236.398 23.12ZM239.798 24.72L240.692 25.1672L241.15 24.2512L240.224 23.8152L239.798 24.72ZM237.838 27.24L238.493 27.9957L238.495 27.9941L237.838 27.24ZM231.278 28.4C229.418 28.4 227.828 28.0168 226.476 27.2815L225.52 29.0385C227.208 29.9565 229.137 30.4 231.278 30.4V28.4ZM226.476 27.2815C225.127 26.548 224.077 25.5002 223.313 24.1169L221.562 25.0831C222.506 26.7931 223.829 28.1187 225.52 29.0385L226.476 27.2815ZM223.323 24.1349C222.586 22.7327 222.198 21.0325 222.198 19H220.198C220.198 21.2875 220.636 23.3206 221.553 25.0651L223.323 24.1349ZM222.198 19C222.198 16.9669 222.587 15.2831 223.32 13.9114L221.556 12.9686C220.636 14.6902 220.198 16.7131 220.198 19H222.198ZM223.317 13.9168C224.084 12.5025 225.124 11.4446 226.442 10.7149L225.473 8.96511C223.805 9.88874 222.498 11.2308 221.559 12.9632L223.317 13.9168ZM226.442 10.7149C227.772 9.97897 229.295 9.6 231.038 9.6V7.6C228.994 7.6 227.131 8.04769 225.473 8.96511L226.442 10.7149ZM231.038 9.6C232.848 9.6 234.317 9.97124 235.491 10.6619L236.505 8.93807C234.959 8.02875 233.121 7.6 231.038 7.6V9.6ZM235.491 10.6619C236.69 11.3676 237.598 12.3227 238.23 13.5408L240.005 12.6192C239.198 11.064 238.025 9.83236 236.505 8.93807L235.491 10.6619ZM238.23 13.5408C238.867 14.768 239.198 16.1799 239.198 17.8H241.198C241.198 15.9001 240.808 14.1654 240.005 12.6192L238.23 13.5408ZM239.198 17.8C239.198 18.2617 239.185 18.6941 239.16 19.0976L241.156 19.2224C241.184 18.7726 241.198 18.2983 241.198 17.8H239.198ZM239.16 19.0976C239.135 19.5001 239.098 19.838 239.051 20.1156L241.024 20.4444C241.085 20.082 241.128 19.6732 241.156 19.2224L239.16 19.0976ZM240.038 19.28H223.958V21.28H240.038V19.28ZM224.958 20.28V17H222.958V20.28H224.958ZM223.958 18H238.158V16H223.958V18ZM237.869 16.0427L235.749 16.6827L236.327 18.5973L238.447 17.9573L237.869 16.0427ZM237.038 17.64C237.038 15.6679 236.543 13.999 235.405 12.7934L233.951 14.1666C234.625 14.881 235.038 15.9854 235.038 17.64H237.038ZM235.414 12.8034C234.285 11.5744 232.758 11 230.958 11V13C232.305 13 233.257 13.4122 233.941 14.1566L235.414 12.8034ZM230.958 11C229.65 11 228.461 11.306 227.428 11.952L228.488 13.648C229.161 13.2273 229.972 13 230.958 13V11ZM227.428 11.952C226.375 12.6099 225.598 13.5831 225.077 14.8089L226.918 15.5911C227.304 14.6836 227.834 14.0568 228.488 13.648L227.428 11.952ZM225.081 14.8004C224.558 16.0015 224.318 17.4267 224.318 19.04H226.318C226.318 17.6133 226.531 16.4785 226.915 15.5996L225.081 14.8004ZM224.318 19.04C224.318 20.6359 224.574 22.0542 225.13 23.2591L226.946 22.4209C226.542 21.5458 226.318 20.4308 226.318 19.04H224.318ZM225.13 23.2591C225.684 24.4587 226.49 25.407 227.56 26.0552L228.596 24.3448C227.906 23.9263 227.352 23.3013 226.946 22.4209L225.13 23.2591ZM227.56 26.0552C228.62 26.698 229.846 27 231.198 27V25C230.15 25 229.295 24.7686 228.596 24.3448L227.56 26.0552ZM231.198 27C232.649 27 233.928 26.7253 234.96 26.0926L233.915 24.3874C233.294 24.768 232.413 25 231.198 25V27ZM234.96 26.0926C235.949 25.4869 236.723 24.6433 237.282 23.5879L235.514 22.6521C235.113 23.4101 234.58 23.9798 233.915 24.3874L234.96 26.0926ZM235.972 24.0248L239.372 25.6248L240.224 23.8152L236.824 22.2152L235.972 24.0248ZM238.903 24.2728C238.483 25.1134 237.911 25.8498 237.181 26.4859L238.495 27.9941C239.418 27.1902 240.153 26.2466 240.692 25.1672L238.903 24.2728ZM237.183 26.4843C236.493 27.0823 235.651 27.5547 234.642 27.8913L235.274 29.7887C236.504 29.3786 237.583 28.7843 238.493 27.9957L237.183 26.4843ZM234.642 27.8913C233.636 28.2266 232.517 28.4 231.278 28.4V30.4C232.705 30.4 234.04 30.2001 235.274 29.7887L234.642 27.8913ZM256.723 9.32L256.329 10.2391L256.342 10.2447L256.355 10.25L256.723 9.32ZM259.603 11.28L258.862 11.9515L258.862 11.9515L259.603 11.28ZM261.363 14.2L261.731 15.1297L262.637 14.7711L262.302 13.8564L261.363 14.2ZM257.323 15.8L256.361 16.072L256.662 17.1374L257.691 16.7297L257.323 15.8ZM255.643 13L254.977 13.7459L254.991 13.7584L255.005 13.7704L255.643 13ZM249.603 12.84L250.133 13.688L250.142 13.6821L250.151 13.676L249.603 12.84ZM247.643 15.2L246.726 14.8004L246.722 14.8104L246.718 14.8204L247.643 15.2ZM247.683 22.84L248.6 22.4404L248.6 22.4404L247.683 22.84ZM249.643 25.2L250.173 24.352L250.173 24.352L249.643 25.2ZM255.043 25.56L255.446 26.4753L255.461 26.4687L255.476 26.4615L255.043 25.56ZM256.683 24.24L255.892 23.6285L255.887 23.634L256.683 24.24ZM257.603 22.12L257.925 21.1733L256.839 20.8039L256.621 21.93L257.603 22.12ZM261.483 23.44L262.438 23.7371L262.727 22.807L261.805 22.4933L261.483 23.44ZM259.723 26.6L258.973 25.9384L258.972 25.9399L259.723 26.6ZM256.803 28.68L257.181 29.6055L257.19 29.6019L257.199 29.5981L256.803 28.68ZM247.523 28.16L247.045 29.0385L247.045 29.0385L247.523 28.16ZM243.963 24.6L243.078 25.0651L243.082 25.0742L243.087 25.0831L243.963 24.6ZM243.963 13.44L243.084 12.9632L243.081 12.9686L243.963 13.44ZM247.483 9.84L247.005 8.96149L246.998 8.96511L247.483 9.84ZM252.643 9.6C254.148 9.6 255.366 9.82637 256.329 10.2391L257.117 8.40085C255.84 7.85362 254.338 7.6 252.643 7.6V9.6ZM256.355 10.25C257.37 10.651 258.199 11.2198 258.862 11.9515L260.344 10.6085C259.46 9.63358 258.369 8.89568 257.09 8.39004L256.355 10.25ZM258.862 11.9515C259.548 12.7083 260.067 13.57 260.424 14.5436L262.302 13.8564C261.858 12.6434 261.205 11.5584 260.344 10.6085L258.862 11.9515ZM260.995 13.2703L256.955 14.8703L257.691 16.7297L261.731 15.1297L260.995 13.2703ZM258.285 15.528C257.898 14.1588 257.247 13.03 256.28 12.2296L255.005 13.7704C255.585 14.25 256.054 14.9878 256.361 16.072L258.285 15.528ZM256.309 12.2541C255.34 11.3889 254.097 11 252.683 11V13C253.722 13 254.452 13.2777 254.977 13.7459L256.309 12.2541ZM252.683 11C251.323 11 250.097 11.3193 249.054 12.004L250.151 13.676C250.815 13.2407 251.643 13 252.683 13V11ZM249.073 11.992C248.027 12.6457 247.249 13.5998 246.726 14.8004L248.56 15.5996C248.943 14.7202 249.472 14.101 250.133 13.688L249.073 11.992ZM246.718 14.8204C246.227 16.0152 246.003 17.4329 246.003 19.04H248.003C248.003 17.6071 248.205 16.4648 248.568 15.5796L246.718 14.8204ZM246.003 19.04C246.003 20.6294 246.243 22.0404 246.766 23.2396L248.6 22.4404C248.216 21.5596 248.003 20.4372 248.003 19.04H246.003ZM246.766 23.2396C247.289 24.4402 248.067 25.3943 249.113 26.048L250.173 24.352C249.512 23.939 248.983 23.3198 248.6 22.4404L246.766 23.2396ZM249.113 26.048C250.15 26.6962 251.354 27 252.683 27V25C251.665 25 250.842 24.7705 250.173 24.352L249.113 26.048ZM252.683 27C253.695 27 254.625 26.8364 255.446 26.4753L254.64 24.6447C254.127 24.8703 253.484 25 252.683 25V27ZM255.476 26.4615C256.277 26.0766 256.951 25.5382 257.478 24.846L255.887 23.634C255.561 24.0618 255.142 24.4034 254.61 24.6585L255.476 26.4615ZM257.474 24.8514C258.035 24.1253 258.399 23.2692 258.585 22.31L256.621 21.93C256.487 22.6242 256.237 23.1814 255.892 23.6286L257.474 24.8514ZM257.281 23.0667L261.161 24.3867L261.805 22.4933L257.925 21.1733L257.281 23.0667ZM260.528 23.1429C260.195 24.2137 259.676 25.1416 258.973 25.9384L260.473 27.2616C261.37 26.2451 262.024 25.0663 262.438 23.7371L260.528 23.1429ZM258.972 25.9399C258.305 26.6989 257.456 27.3085 256.406 27.7619L257.199 29.5981C258.496 29.0381 259.594 28.2611 260.474 27.2601L258.972 25.9399ZM256.424 27.7545C255.392 28.1765 254.178 28.4 252.763 28.4V30.4C254.387 30.4 255.867 30.1435 257.181 29.6055L256.424 27.7545ZM252.763 28.4C250.933 28.4 249.354 28.0178 248.001 27.2815L247.045 29.0385C248.731 29.9555 250.646 30.4 252.763 30.4V28.4ZM248.001 27.2815C246.652 26.548 245.602 25.5002 244.838 24.1169L243.087 25.0831C244.031 26.7931 245.354 28.1187 247.045 29.0385L248.001 27.2815ZM244.848 24.1349C244.111 22.7327 243.723 21.0325 243.723 19H241.723C241.723 21.2875 242.161 23.3206 243.078 25.0651L244.848 24.1349ZM243.723 19C243.723 16.9669 244.112 15.2831 244.845 13.9114L243.081 12.9686C242.161 14.6902 241.723 16.7131 241.723 19H243.723ZM244.842 13.9168C245.609 12.5025 246.649 11.4446 247.967 10.7149L246.998 8.96511C245.33 9.88874 244.023 11.2308 243.084 12.9632L244.842 13.9168ZM247.961 10.7185C249.318 9.98002 250.871 9.6 252.643 9.6V7.6C250.575 7.6 248.687 8.04664 247.005 8.96151L247.961 10.7185ZM264.864 29H263.864V30H264.864V29ZM264.864 -9.53674e-07V-1H263.864V-9.53674e-07H264.864ZM269.144 -9.53674e-07H270.144V-1H269.144V-9.53674e-07ZM269.144 12.2H268.144L270.027 12.6696L269.144 12.2ZM271.824 9.48L272.271 10.3745L272.279 10.3702L271.824 9.48ZM279.424 9.44L278.977 10.3344L278.989 10.3408L279.002 10.3467L279.424 9.44ZM282.144 11.88L282.998 11.3594L282.998 11.3594L282.144 11.88ZM283.144 29V30H284.144V29H283.144ZM278.864 29H277.864V30H278.864V29ZM277.624 13.28L276.929 13.999L276.935 14.0047L276.941 14.0103L277.624 13.28ZM272.024 12.76L272.459 13.6602L272.471 13.6544L272.024 12.76ZM269.944 14.76L269.086 14.2455L269.082 14.253L269.944 14.76ZM269.144 29V30H270.144V29H269.144ZM265.864 29V-9.53674e-07H263.864V29H265.864ZM264.864 0.999999H269.144V-1H264.864V0.999999ZM268.144 -9.53674e-07V12.2H270.144V-9.53674e-07H268.144ZM270.027 12.6696C270.609 11.5742 271.361 10.8294 272.271 10.3744L271.377 8.58557C270.046 9.25062 269.012 10.3191 268.261 11.7304L270.027 12.6696ZM272.279 10.3702C273.274 9.86116 274.383 9.6 275.624 9.6V7.6C274.091 7.6 272.667 7.9255 271.368 8.58975L272.279 10.3702ZM275.624 9.6C276.902 9.6 278.012 9.85233 278.977 10.3344L279.871 8.54557C278.595 7.90767 277.172 7.6 275.624 7.6V9.6ZM279.002 10.3467C279.967 10.7957 280.725 11.4735 281.29 12.4006L282.998 11.3594C282.23 10.0998 281.174 9.15096 279.845 8.53328L279.002 10.3467ZM281.29 12.4006C281.836 13.2954 282.144 14.4877 282.144 16.04H284.144C284.144 14.2323 283.785 12.6513 282.998 11.3594L281.29 12.4006ZM282.144 16.04V29H284.144V16.04H282.144ZM283.144 28H278.864V30H283.144V28ZM279.864 29V17.4H277.864V29H279.864ZM279.864 17.4C279.864 15.3425 279.443 13.6124 278.307 12.5497L276.941 14.0103C277.458 14.4942 277.864 15.5109 277.864 17.4H279.864ZM278.319 12.561C277.312 11.5882 276.041 11.12 274.584 11.12V13.12C275.58 13.12 276.335 13.4251 276.929 13.999L278.319 12.561ZM274.584 11.12C273.558 11.12 272.552 11.3778 271.577 11.8656L272.471 13.6544C273.202 13.2889 273.903 13.12 274.584 13.12V11.12ZM271.588 11.8598C270.556 12.3593 269.728 13.1767 269.086 14.2455L270.801 15.2745C271.28 14.4766 271.838 13.9607 272.459 13.6602L271.588 11.8598ZM269.082 14.253C268.425 15.3691 268.144 16.7934 268.144 18.44H270.144C270.144 16.9933 270.396 15.9642 270.806 15.267L269.082 14.253ZM268.144 18.44V29H270.144V18.44H268.144ZM269.144 28H264.864V30H269.144V28Z" fill="black"/>
</g>
<defs>
<filter id="filter0_d_306_36" x="0.84" y="0" width="284.304" height="39.6" filterUnits="userSpaceOnUse" color-interpolation-filters="sRGB">
<feFlood flood-opacity="0" result="BackgroundImageFix"/>
<feColorMatrix in="SourceAlpha" type="matrix" values="0 0 0 0 0 0 0 0 0 0 0 0 0 0 0 0 0 0 127 0" result="hardAlpha"/>
<feOffset dx="2" dy="2"/>
<feComposite in2="hardAlpha" operator="out"/>
<feColorMatrix type="matrix" values="0 0 0 0 0 0 0 0 0 0 0 0 0 0 0 0 0 0 1 0"/>
<feBlend mode="normal" in2="BackgroundImageFix" result="effect1_dropShadow_306_36"/>
<feBlend mode="normal" in="SourceGraphic" in2="effect1_dropShadow_306_36" result="shape"/>
</filter>
</defs>
</svg>
