<svg viewBox="0 0 72 12" fill="none" xmlns="http://www.w3.org/2000/svg">
<path d="M6.33599 1.81809L3.79799 9.06009H2.76599L1.04399 1.47009L0.0419922 1.17009V0.738086H3.33599V1.17009L2.25599 1.46409L3.70199 8.02809H3.46799L5.93399 0.678086H6.86999L9.50999 8.25009L9.07799 8.35809L10.536 1.46409L9.46199 1.17009V0.738086H12.27V1.17009L11.334 1.46409L9.60599 9.06009H8.61599L6.09599 1.92009L6.33599 1.81809Z" fill="white"/>
<path d="M15.2259 8.43609C15.5979 8.43609 15.9179 8.36209 16.1859 8.21409C16.4579 8.06209 16.6659 7.83209 16.8099 7.52409C16.9539 7.21209 17.0259 6.81409 17.0259 6.33009C17.0259 5.80209 16.9579 5.36209 16.8219 5.01009C16.6899 4.65409 16.4939 4.38609 16.2339 4.20609C15.9739 4.02209 15.6539 3.93009 15.2739 3.93009C14.9019 3.93009 14.5819 4.00609 14.3139 4.15809C14.0459 4.30609 13.8399 4.53609 13.6959 4.84809C13.5519 5.16009 13.4799 5.55809 13.4799 6.04209C13.4799 6.56209 13.5459 7.00209 13.6779 7.36209C13.8139 7.71809 14.0119 7.98609 14.2719 8.16609C14.5319 8.34609 14.8499 8.43609 15.2259 8.43609ZM15.2139 9.12009C14.6379 9.12009 14.1359 9.00009 13.7079 8.76009C13.2799 8.51609 12.9499 8.17609 12.7179 7.74009C12.4859 7.30009 12.3699 6.79209 12.3699 6.21609C12.3699 5.62809 12.4919 5.11209 12.7359 4.66809C12.9799 4.22009 13.3199 3.87209 13.7559 3.62409C14.1959 3.37609 14.7059 3.25209 15.2859 3.25209C15.8659 3.25209 16.3679 3.37409 16.7919 3.61809C17.2199 3.85809 17.5499 4.19609 17.7819 4.63209C18.0179 5.06409 18.1359 5.57209 18.1359 6.15609C18.1359 6.74409 18.0139 7.26009 17.7699 7.70409C17.5259 8.14809 17.1839 8.49609 16.7439 8.74809C16.3079 8.99609 15.7979 9.12009 15.2139 9.12009Z" fill="white"/>
<path d="M21.092 4.44009V8.33409L22.028 8.59809V9.00009H19.1V8.59809L20.06 8.33409V4.66809C19.996 4.61209 19.882 4.53809 19.718 4.44609C19.558 4.35409 19.342 4.24409 19.07 4.11609V3.91809L20.654 3.23409H20.834L21.092 4.44009ZM23.006 8.59809L23.948 8.33409V5.35809C23.948 5.11009 23.9 4.90409 23.804 4.74009C23.712 4.57609 23.568 4.45209 23.372 4.36809C23.18 4.28409 22.932 4.24209 22.628 4.24209C22.324 4.24209 22.028 4.28609 21.74 4.37409C21.456 4.45809 21.226 4.56409 21.05 4.69209L20.882 4.47609C21.178 4.22009 21.432 4.01209 21.644 3.85209C21.856 3.69209 22.046 3.56809 22.214 3.48009C22.386 3.39209 22.554 3.33209 22.718 3.30009C22.886 3.26809 23.07 3.25209 23.27 3.25209C23.858 3.25209 24.29 3.41209 24.566 3.73209C24.842 4.05209 24.98 4.54209 24.98 5.20209V8.33409L25.946 8.59809V9.00009H23.006V8.59809Z" fill="white"/>
<path d="M27.8245 1.81809C27.5765 1.81809 27.3745 1.75009 27.2185 1.61409C27.0665 1.47809 26.9905 1.29209 26.9905 1.05609C26.9905 0.816086 27.0665 0.628086 27.2185 0.492085C27.3745 0.356086 27.5765 0.288086 27.8245 0.288086C28.0725 0.288086 28.2745 0.356086 28.4305 0.492085C28.5865 0.628086 28.6645 0.816086 28.6645 1.05609C28.6645 1.29209 28.5865 1.47809 28.4305 1.61409C28.2745 1.75009 28.0725 1.81809 27.8245 1.81809ZM27.3985 4.57209C27.3545 4.53609 27.2765 4.48809 27.1645 4.42809C27.0565 4.36409 26.9345 4.30009 26.7985 4.23609C26.6665 4.16809 26.5385 4.11009 26.4145 4.06209V3.78609L28.2625 3.25209H28.4905L28.4305 4.41009V9.21009C28.4305 9.43809 28.4185 9.63809 28.3945 9.81009C28.3705 9.98209 28.3225 10.1421 28.2505 10.2901C28.1825 10.4381 28.0785 10.5901 27.9385 10.7461C27.8025 10.9061 27.6185 11.0841 27.3865 11.2801C27.1585 11.4761 26.8745 11.7101 26.5345 11.9821L26.1505 11.5501C26.4425 11.2501 26.6725 11.0041 26.8405 10.8121C27.0085 10.6201 27.1325 10.4541 27.2125 10.3141C27.2925 10.1781 27.3425 10.0461 27.3625 9.91809C27.3865 9.79409 27.3985 9.64809 27.3985 9.48009V4.57209Z" fill="white"/>
<path d="M31.6043 7.09209C31.6043 7.34009 31.6423 7.54009 31.7183 7.69209C31.7943 7.84409 31.9203 7.95409 32.0963 8.02209C32.2763 8.09009 32.5183 8.12409 32.8223 8.12409C33.0903 8.12409 33.3563 8.08609 33.6203 8.01009C33.8883 7.93009 34.1063 7.83009 34.2743 7.71009L34.4303 7.96209C34.1543 8.20609 33.9163 8.40409 33.7163 8.55609C33.5203 8.70809 33.3443 8.82609 33.1883 8.91009C33.0323 8.99009 32.8763 9.04409 32.7203 9.07209C32.5683 9.10409 32.3983 9.12009 32.2103 9.12009C31.6463 9.12009 31.2323 8.96609 30.9683 8.65809C30.7043 8.34609 30.5723 7.88409 30.5723 7.27209V4.15809L29.5943 3.77409V3.36609L31.6943 3.29409L31.6043 4.09809V7.09209ZM34.4783 9.10809L34.2083 8.02209V4.15809L33.2543 3.77409V3.36609L35.3303 3.29409L35.2403 4.09809V7.86009C35.2763 7.88809 35.3323 7.92409 35.4083 7.96809C35.4883 8.01209 35.5743 8.05809 35.6663 8.10609C35.7623 8.15009 35.8543 8.19209 35.9423 8.23209C36.0343 8.26809 36.1123 8.29609 36.1763 8.31609V8.53209L34.6523 9.10809H34.4783Z" fill="white"/>
<path d="M38.8693 4.44009V8.33409L39.8053 8.59809V9.00009H36.8773V8.59809L37.8373 8.33409V4.66809C37.7733 4.61209 37.6593 4.53809 37.4953 4.44609C37.3353 4.35409 37.1193 4.24409 36.8473 4.11609V3.91809L38.4313 3.23409H38.6113L38.8693 4.44009ZM40.7833 8.59809L41.7253 8.33409V5.35809C41.7253 5.11009 41.6773 4.90409 41.5813 4.74009C41.4893 4.57609 41.3453 4.45209 41.1493 4.36809C40.9573 4.28409 40.7093 4.24209 40.4053 4.24209C40.1013 4.24209 39.8053 4.28609 39.5173 4.37409C39.2333 4.45809 39.0033 4.56409 38.8273 4.69209L38.6593 4.47609C38.9553 4.22009 39.2093 4.01209 39.4213 3.85209C39.6333 3.69209 39.8233 3.56809 39.9913 3.48009C40.1633 3.39209 40.3313 3.33209 40.4953 3.30009C40.6633 3.26809 40.8473 3.25209 41.0473 3.25209C41.6353 3.25209 42.0673 3.41209 42.3433 3.73209C42.6193 4.05209 42.7573 4.54209 42.7573 5.20209V8.33409L43.7233 8.59809V9.00009H40.7833V8.59809Z" fill="white"/>
<path d="M50.9166 6.54609C50.9166 6.95009 50.8526 7.31009 50.7246 7.62609C50.6006 7.94209 50.4186 8.21009 50.1786 8.43009C49.9386 8.65009 49.6446 8.81809 49.2966 8.93409C48.9486 9.05009 48.5506 9.10809 48.1026 9.10809C47.7506 9.10809 47.4646 9.07209 47.2446 9.00009C47.0286 8.92809 46.8706 8.83009 46.7706 8.70609C46.6706 8.57809 46.6206 8.43409 46.6206 8.27409C46.6206 8.10209 46.6706 7.95809 46.7706 7.84209C46.8706 7.72609 47.0146 7.66809 47.2026 7.66809C47.2706 7.66809 47.3446 7.70209 47.4246 7.77009C47.5046 7.83409 47.5966 7.91009 47.7006 7.99809C47.8046 8.08609 47.9266 8.16409 48.0666 8.23209C48.2066 8.29609 48.3706 8.32809 48.5586 8.32809C48.9306 8.32809 49.2246 8.21809 49.4406 7.99809C49.6606 7.77409 49.7706 7.39209 49.7706 6.85209V1.46409L48.7086 1.17009V0.738086H51.9666V1.17009L50.9046 1.46409L50.9166 6.54609Z" fill="white"/>
<path d="M56.4729 5.38809L56.3769 5.99409C55.8009 6.09409 55.3349 6.19609 54.9789 6.30009C54.6229 6.40009 54.3509 6.50609 54.1629 6.61809C53.9749 6.73009 53.8469 6.85409 53.7789 6.99009C53.7109 7.12209 53.6769 7.27209 53.6769 7.44009C53.6769 7.72009 53.7629 7.93409 53.9349 8.08209C54.1069 8.22609 54.3429 8.29809 54.6429 8.29809C54.8749 8.29809 55.0849 8.25209 55.2729 8.16009C55.4649 8.06409 55.6169 7.93609 55.7289 7.77609C55.8409 7.61609 55.8969 7.43809 55.8969 7.24209V5.08209C55.8969 4.70609 55.8109 4.42409 55.6389 4.23609C55.4669 4.04409 55.1689 3.94809 54.7449 3.94809C54.5569 3.94809 54.3709 3.96409 54.1869 3.99609C54.0069 4.02409 53.8369 4.06809 53.6769 4.12809L54.0549 3.76809C54.0309 3.90809 54.0029 4.03809 53.9709 4.15809C53.9429 4.27409 53.9129 4.38009 53.8809 4.47609C53.8489 4.57209 53.8089 4.65809 53.7609 4.73409C53.6969 4.84609 53.6129 4.92009 53.5089 4.95609C53.4089 4.99209 53.2929 5.01009 53.1609 5.01009C52.9769 5.01009 52.8349 4.97209 52.7349 4.89609C52.6349 4.82009 52.5849 4.72609 52.5849 4.61409C52.5849 4.48209 52.6509 4.34009 52.7829 4.18809C52.9149 4.03609 53.0969 3.89009 53.3289 3.75009C53.5609 3.61009 53.8269 3.49609 54.1269 3.40809C54.4309 3.32009 54.7549 3.27609 55.0989 3.27609C55.5429 3.27609 55.8989 3.34209 56.1669 3.47409C56.4349 3.60209 56.6269 3.78609 56.7429 4.02609C56.8629 4.26609 56.9229 4.55609 56.9229 4.89609V7.68609C56.9229 7.83009 56.9449 7.94809 56.9889 8.04009C57.0329 8.12809 57.0969 8.19409 57.1809 8.23809C57.2689 8.27809 57.3769 8.29809 57.5049 8.29809C57.5969 8.29809 57.6949 8.28609 57.7989 8.26209C57.9029 8.23809 58.0089 8.20409 58.1169 8.16009V8.56809C57.9369 8.74809 57.7449 8.88209 57.5409 8.97009C57.3409 9.05409 57.1509 9.09609 56.9709 9.09609C56.7469 9.09609 56.5549 9.04409 56.3949 8.94009C56.2389 8.83609 56.1189 8.68009 56.0349 8.47209C55.9509 8.26409 55.9049 8.00609 55.8969 7.69809L55.9389 7.66809C55.8909 7.96009 55.7869 8.21609 55.6269 8.43609C55.4709 8.65209 55.2729 8.82009 55.0329 8.94009C54.7929 9.06009 54.5209 9.12009 54.2169 9.12009C53.7089 9.12009 53.3069 8.99209 53.0109 8.73609C52.7149 8.48009 52.5669 8.11409 52.5669 7.63809C52.5669 7.37409 52.6189 7.13609 52.7229 6.92409C52.8309 6.70809 53.0229 6.51209 53.2989 6.33609C53.5789 6.15609 53.9749 5.99009 54.4869 5.83809C54.9989 5.68209 55.6609 5.53209 56.4729 5.38809Z" fill="white"/>
<path d="M60.5607 4.44009V8.33409L61.4967 8.59809V9.00009H58.5687V8.59809L59.5287 8.33409V4.66809C59.4647 4.61209 59.3507 4.53809 59.1867 4.44609C59.0267 4.35409 58.8107 4.24409 58.5387 4.11609V3.91809L60.1227 3.23409H60.3027L60.5607 4.44009ZM62.4747 8.59809L63.4167 8.33409V5.35809C63.4167 5.11009 63.3687 4.90409 63.2727 4.74009C63.1807 4.57609 63.0367 4.45209 62.8407 4.36809C62.6487 4.28409 62.4007 4.24209 62.0967 4.24209C61.7927 4.24209 61.4967 4.28609 61.2087 4.37409C60.9247 4.45809 60.6947 4.56409 60.5187 4.69209L60.3507 4.47609C60.6467 4.22009 60.9007 4.01209 61.1127 3.85209C61.3247 3.69209 61.5147 3.56809 61.6827 3.48009C61.8547 3.39209 62.0227 3.33209 62.1867 3.30009C62.3547 3.26809 62.5387 3.25209 62.7387 3.25209C63.3267 3.25209 63.7587 3.41209 64.0347 3.73209C64.3107 4.05209 64.4487 4.54209 64.4487 5.20209V8.33409L65.4147 8.59809V9.00009H62.4747V8.59809Z" fill="white"/>
<path d="M68.5413 11.9821C68.0733 11.9821 67.6653 11.9481 67.3173 11.8801C66.9693 11.8161 66.6813 11.7221 66.4533 11.5981C66.2293 11.4741 66.0613 11.3201 65.9493 11.1361C65.8413 10.9561 65.7873 10.7521 65.7873 10.5241C65.7873 10.3601 65.8293 10.2021 65.9133 10.0501C66.0013 9.90209 66.1373 9.76609 66.3213 9.64209C66.5053 9.51809 66.7413 9.41209 67.0293 9.32409C67.3173 9.24009 67.6673 9.17809 68.0793 9.13809L68.4813 9.13209V9.26409C68.0733 9.30009 67.7533 9.36809 67.5213 9.46809C67.2893 9.57209 67.1253 9.70009 67.0293 9.85209C66.9333 10.0041 66.8853 10.1741 66.8853 10.3621C66.8853 10.5861 66.9433 10.7721 67.0593 10.9201C67.1793 11.0721 67.3673 11.1841 67.6233 11.2561C67.8793 11.3321 68.2093 11.3701 68.6133 11.3701C69.0733 11.3701 69.4593 11.3241 69.7713 11.2321C70.0833 11.1401 70.3173 11.0101 70.4733 10.8421C70.6333 10.6741 70.7133 10.4781 70.7133 10.2541C70.7133 10.1021 70.6833 9.97209 70.6233 9.86409C70.5633 9.75609 70.4553 9.66609 70.2993 9.59409C70.1473 9.52209 69.9293 9.46609 69.6453 9.42609C69.3653 9.38609 69.0013 9.36009 68.5533 9.34809C68.1093 9.33609 67.7413 9.29809 67.4493 9.23409C67.1573 9.17409 66.9293 9.09209 66.7653 8.98809C66.6013 8.88009 66.4853 8.75609 66.4173 8.61609C66.3493 8.47609 66.3153 8.32409 66.3153 8.16009C66.3153 7.89209 66.4433 7.66209 66.6993 7.47009C66.9593 7.27809 67.3573 7.14609 67.8933 7.07409L67.9833 7.20609C67.7593 7.23009 67.5913 7.28609 67.4793 7.37409C67.3713 7.45809 67.3173 7.58609 67.3173 7.75809C67.3173 7.85409 67.3353 7.94009 67.3713 8.01609C67.4113 8.09209 67.4913 8.15609 67.6113 8.20809C67.7353 8.26009 67.9213 8.30209 68.1693 8.33409C68.4213 8.36209 68.7593 8.38409 69.1833 8.40009C69.6073 8.41209 69.9793 8.45009 70.2993 8.51409C70.6193 8.57409 70.8853 8.66609 71.0973 8.79009C71.3093 8.91409 71.4693 9.07409 71.5773 9.27009C71.6853 9.46609 71.7393 9.70409 71.7393 9.98409C71.7393 10.3641 71.6133 10.7041 71.3613 11.0041C71.1133 11.3081 70.7513 11.5461 70.2753 11.7181C69.7993 11.8941 69.2213 11.9821 68.5413 11.9821ZM68.5353 7.30209C68.0673 7.30209 67.6553 7.22009 67.2993 7.05609C66.9473 6.88809 66.6733 6.65209 66.4773 6.34809C66.2813 6.04409 66.1833 5.68809 66.1833 5.28009C66.1833 4.86809 66.2813 4.51009 66.4773 4.20609C66.6733 3.90209 66.9473 3.66809 67.2993 3.50409C67.6553 3.33609 68.0673 3.25209 68.5353 3.25209C68.8833 3.25209 69.1993 3.30009 69.4833 3.39609C69.7713 3.48809 70.0173 3.62409 70.2213 3.80409C70.4293 3.98009 70.5893 4.19209 70.7013 4.44009C70.8133 4.68809 70.8693 4.96609 70.8693 5.27409C70.8693 5.68609 70.7713 6.04409 70.5753 6.34809C70.3793 6.65209 70.1053 6.88809 69.7533 7.05609C69.4053 7.22009 68.9993 7.30209 68.5353 7.30209ZM68.5833 6.69609C68.9473 6.69609 69.2453 6.58209 69.4773 6.35409C69.7093 6.12209 69.8253 5.77809 69.8253 5.32209C69.8253 4.84609 69.7133 4.48209 69.4893 4.23009C69.2653 3.97809 68.9373 3.85209 68.5053 3.85209C68.1333 3.85209 67.8273 3.96809 67.5873 4.20009C67.3513 4.42809 67.2333 4.77009 67.2333 5.22609C67.2333 5.69809 67.3473 6.06209 67.5753 6.31809C67.8073 6.57009 68.1433 6.69609 68.5833 6.69609ZM69.4353 3.83409L69.1593 3.35409C69.4273 3.37409 69.6873 3.38009 69.9393 3.37209C70.1913 3.36409 70.4273 3.35209 70.6473 3.33609C70.8673 3.31609 71.0653 3.29809 71.2413 3.28209C71.4173 3.26209 71.5633 3.25209 71.6793 3.25209C71.7793 3.25209 71.8533 3.28809 71.9013 3.36009C71.9533 3.42809 71.9793 3.53609 71.9793 3.68409C71.9793 3.85609 71.9453 3.99809 71.8773 4.11009C71.8133 4.22209 71.7353 4.27809 71.6433 4.27809C71.5553 4.27809 71.4593 4.26009 71.3553 4.22409C71.2553 4.18809 71.1273 4.14609 70.9713 4.09809C70.8193 4.04609 70.6193 3.99609 70.3713 3.94809C70.1273 3.90009 69.8153 3.86209 69.4353 3.83409Z" fill="white"/>
</svg>
