<svg viewBox="0 0 348 46" fill="none" xmlns="http://www.w3.org/2000/svg">
<path d="M9.656 35L0.344 3.32H5.768L12.872 30.536L19.784 3.32H25.064L32.024 30.584L39.08 3.32H44.312L35.048 35H29L23.96 15.992L22.376 8.696H22.328L20.744 15.992L15.752 35H9.656ZM56.1988 10.52C58.5348 10.52 60.5988 11.016 62.3908 12.008C64.1828 13 65.5748 14.44 66.5668 16.328C67.5908 18.184 68.1028 20.408 68.1028 23C68.1028 25.592 67.5908 27.832 66.5668 29.72C65.5748 31.576 64.1828 33 62.3908 33.992C60.5988 34.984 58.5348 35.48 56.1988 35.48C53.8628 35.48 51.7988 34.984 50.0068 33.992C48.2148 33 46.8068 31.576 45.7828 29.72C44.7588 27.832 44.2468 25.592 44.2468 23C44.2468 20.408 44.7588 18.184 45.7828 16.328C46.8068 14.44 48.2148 13 50.0068 12.008C51.7988 11.016 53.8628 10.52 56.1988 10.52ZM56.1988 14.552C54.7588 14.552 53.5268 14.888 52.5028 15.56C51.5108 16.2 50.7428 17.144 50.1988 18.392C49.6548 19.64 49.3828 21.176 49.3828 23C49.3828 24.792 49.6548 26.328 50.1988 27.608C50.7428 28.856 51.5108 29.816 52.5028 30.488C53.5268 31.128 54.7588 31.448 56.1988 31.448C57.6388 31.448 58.8548 31.128 59.8468 30.488C60.8388 29.816 61.6068 28.856 62.1508 27.608C62.6948 26.328 62.9668 24.792 62.9668 23C62.9668 21.176 62.6948 19.64 62.1508 18.392C61.6068 17.144 60.8388 16.2 59.8468 15.56C58.8548 14.888 57.6388 14.552 56.1988 14.552ZM72.644 35V11H77.204L77.54 17.24L76.868 16.568C77.316 15.192 77.956 14.056 78.788 13.16C79.652 12.232 80.66 11.56 81.812 11.144C82.996 10.728 84.244 10.52 85.556 10.52C87.252 10.52 88.772 10.856 90.116 11.528C91.492 12.168 92.58 13.144 93.38 14.456C94.18 15.768 94.58 17.432 94.58 19.448V35H89.444V21.032C89.444 18.664 88.948 17.032 87.956 16.136C86.996 15.208 85.78 14.744 84.308 14.744C83.252 14.744 82.228 15 81.236 15.512C80.244 15.992 79.412 16.776 78.74 17.864C78.1 18.952 77.78 20.408 77.78 22.232V35H72.644ZM103.035 6.968C101.915 6.968 101.051 6.696 100.443 6.152C99.8667 5.576 99.5787 4.776 99.5787 3.752C99.5787 2.728 99.8667 1.944 100.443 1.4C101.051 0.855999 101.915 0.584 103.035 0.584C104.123 0.584 104.955 0.855999 105.531 1.4C106.139 1.944 106.443 2.728 106.443 3.752C106.443 4.776 106.139 5.576 105.531 6.152C104.955 6.696 104.123 6.968 103.035 6.968ZM105.579 11V37.112C105.579 39.16 105.195 40.776 104.427 41.96C103.691 43.176 102.715 44.04 101.499 44.552C100.315 45.064 99.0507 45.32 97.7067 45.32C96.6187 45.32 95.6267 45.176 94.7307 44.888C93.8347 44.6 93.0827 44.216 92.4747 43.736L93.3387 39.608C93.7867 39.992 94.3307 40.312 94.9707 40.568C95.5787 40.824 96.2667 40.952 97.0347 40.952C98.0587 40.952 98.8747 40.616 99.4827 39.944C100.123 39.304 100.443 38.2 100.443 36.632V11H105.579ZM120.239 35.48C118.671 35.48 117.215 35.192 115.871 34.616C114.559 34.04 113.503 33.112 112.703 31.832C111.903 30.552 111.503 28.888 111.503 26.84V11H116.639V25.544C116.639 27.72 117.103 29.224 118.031 30.056C118.959 30.856 120.255 31.256 121.919 31.256C122.719 31.256 123.487 31.128 124.223 30.872C124.991 30.584 125.679 30.152 126.287 29.576C126.895 28.968 127.359 28.2 127.679 27.272C128.031 26.344 128.207 25.256 128.207 24.008V11H133.343V35H128.831L128.591 31.112C127.759 32.616 126.639 33.72 125.231 34.424C123.823 35.128 122.159 35.48 120.239 35.48ZM139.446 35V11H144.006L144.342 17.24L143.67 16.568C144.118 15.192 144.758 14.056 145.59 13.16C146.454 12.232 147.462 11.56 148.614 11.144C149.798 10.728 151.046 10.52 152.358 10.52C154.054 10.52 155.574 10.856 156.918 11.528C158.294 12.168 159.382 13.144 160.182 14.456C160.982 15.768 161.382 17.432 161.382 19.448V35H156.246V21.032C156.246 18.664 155.75 17.032 154.758 16.136C153.798 15.208 152.582 14.744 151.11 14.744C150.054 14.744 149.03 15 148.038 15.512C147.046 15.992 146.214 16.776 145.542 17.864C144.902 18.952 144.582 20.408 144.582 22.232V35H139.446ZM178.962 3.32C183.922 3.32 187.778 4.696 190.53 7.448C193.314 10.168 194.706 14.072 194.706 19.16C194.706 24.248 193.314 28.168 190.53 30.92C187.778 33.64 183.922 35 178.962 35H167.778V3.32H178.962ZM178.962 30.632C182.322 30.632 184.882 29.64 186.642 27.656C188.434 25.64 189.33 22.808 189.33 19.16C189.33 15.512 188.434 12.696 186.642 10.712C184.882 8.696 182.322 7.688 178.962 7.688H172.914V30.632H178.962ZM210.245 35.48C207.845 35.48 205.733 34.984 203.909 33.992C202.085 33 200.661 31.576 199.637 29.72C198.645 27.832 198.149 25.592 198.149 23C198.149 20.408 198.645 18.184 199.637 16.328C200.661 14.44 202.069 13 203.861 12.008C205.653 11.016 207.685 10.52 209.957 10.52C212.293 10.52 214.277 11 215.909 11.96C217.541 12.92 218.789 14.232 219.653 15.896C220.517 17.56 220.949 19.448 220.949 21.56C220.949 22.136 220.933 22.68 220.901 23.192C220.869 23.704 220.821 24.152 220.757 24.536H201.461V20.6H218.501L215.957 21.368C215.957 19.192 215.413 17.528 214.325 16.376C213.237 15.192 211.749 14.6 209.861 14.6C208.485 14.6 207.285 14.92 206.261 15.56C205.237 16.2 204.453 17.16 203.909 18.44C203.365 19.688 203.093 21.224 203.093 23.048C203.093 24.84 203.381 26.36 203.957 27.608C204.533 28.856 205.349 29.8 206.405 30.44C207.461 31.08 208.709 31.4 210.149 31.4C211.749 31.4 213.045 31.096 214.037 30.488C215.029 29.88 215.813 29.032 216.389 27.944L220.469 29.864C219.893 31.016 219.109 32.024 218.117 32.888C217.157 33.72 216.005 34.36 214.661 34.808C213.317 35.256 211.845 35.48 210.245 35.48ZM240.604 11H245.98L236.428 35H230.811L221.211 11H226.827L233.644 30.536L240.604 11ZM247.562 28.52C248.65 28.52 249.514 28.84 250.154 29.48C250.826 30.088 251.162 30.92 251.162 31.976C251.162 33.032 250.826 33.88 250.154 34.52C249.514 35.16 248.65 35.48 247.562 35.48C246.442 35.48 245.546 35.16 244.874 34.52C244.234 33.88 243.914 33.032 243.914 31.976C243.914 30.92 244.234 30.088 244.874 29.48C245.546 28.84 246.442 28.52 247.562 28.52Z" fill="#333D4B"/>
<path d="M263.183 3.944V27.8C263.183 28.984 263.487 29.848 264.095 30.392C264.735 30.936 265.583 31.208 266.639 31.208C267.503 31.208 268.255 31.08 268.895 30.824C269.535 30.536 270.127 30.152 270.671 29.672L271.823 33.416C271.087 34.056 270.175 34.568 269.087 34.952C268.031 35.304 266.847 35.48 265.535 35.48C264.159 35.48 262.895 35.256 261.743 34.808C260.591 34.36 259.695 33.64 259.055 32.648C258.415 31.624 258.079 30.296 258.047 28.664V5.384L263.183 3.944ZM271.439 11V15.032H253.439V11H271.439ZM285.158 35.48C282.758 35.48 280.646 34.984 278.822 33.992C276.998 33 275.574 31.576 274.55 29.72C273.558 27.832 273.062 25.592 273.062 23C273.062 20.408 273.558 18.184 274.55 16.328C275.574 14.44 276.982 13 278.774 12.008C280.566 11.016 282.598 10.52 284.87 10.52C287.206 10.52 289.19 11 290.822 11.96C292.454 12.92 293.702 14.232 294.566 15.896C295.43 17.56 295.862 19.448 295.862 21.56C295.862 22.136 295.846 22.68 295.814 23.192C295.782 23.704 295.734 24.152 295.67 24.536H276.374V20.6H293.414L290.87 21.368C290.87 19.192 290.326 17.528 289.238 16.376C288.15 15.192 286.662 14.6 284.774 14.6C283.398 14.6 282.198 14.92 281.174 15.56C280.15 16.2 279.366 17.16 278.822 18.44C278.278 19.688 278.006 21.224 278.006 23.048C278.006 24.84 278.294 26.36 278.87 27.608C279.446 28.856 280.262 29.8 281.318 30.44C282.374 31.08 283.622 31.4 285.062 31.4C286.662 31.4 287.958 31.096 288.95 30.488C289.942 29.88 290.726 29.032 291.302 27.944L295.382 29.864C294.806 31.016 294.022 32.024 293.03 32.888C292.07 33.72 290.918 34.36 289.574 34.808C288.23 35.256 286.758 35.48 285.158 35.48ZM310.796 10.52C312.716 10.52 314.348 10.808 315.692 11.384C317.068 11.928 318.22 12.712 319.148 13.736C320.076 14.76 320.78 15.928 321.26 17.24L316.412 19.16C315.996 17.688 315.324 16.568 314.396 15.8C313.5 15 312.316 14.6 310.844 14.6C309.404 14.6 308.172 14.936 307.148 15.608C306.124 16.248 305.34 17.192 304.796 18.44C304.284 19.688 304.028 21.224 304.028 23.048C304.028 24.84 304.3 26.36 304.844 27.608C305.388 28.856 306.172 29.8 307.196 30.44C308.22 31.08 309.436 31.4 310.844 31.4C311.932 31.4 312.876 31.224 313.676 30.872C314.476 30.488 315.132 29.96 315.644 29.288C316.188 28.584 316.556 27.736 316.748 26.744L321.404 28.328C320.956 29.768 320.252 31.032 319.292 32.12C318.364 33.176 317.196 34.008 315.788 34.616C314.38 35.192 312.764 35.48 310.94 35.48C308.572 35.48 306.476 34.984 304.652 33.992C302.828 33 301.404 31.576 300.38 29.72C299.388 27.832 298.892 25.592 298.892 23C298.892 20.408 299.388 18.184 300.38 16.328C301.404 14.44 302.812 13 304.604 12.008C306.428 11.016 308.492 10.52 310.796 10.52ZM325.462 35V0.199999H330.598V14.84C331.398 13.336 332.47 12.248 333.814 11.576C335.19 10.872 336.71 10.52 338.374 10.52C340.07 10.52 341.59 10.856 342.934 11.528C344.31 12.168 345.398 13.144 346.198 14.456C346.998 15.768 347.398 17.432 347.398 19.448V35H342.262V21.08C342.262 18.712 341.766 17.064 340.774 16.136C339.814 15.208 338.598 14.744 337.126 14.744C336.102 14.744 335.078 15 334.054 15.512C333.062 15.992 332.23 16.792 331.558 17.912C330.918 19 330.598 20.472 330.598 22.328V35H325.462Z" fill="#2563EB"/>
</svg>
