<svg viewBox="0 0 121 16" fill="none" xmlns="http://www.w3.org/2000/svg">
<path d="M13.725 3.99L10.77 12H8.97L6.9 6.48L4.8 12H3L0.06 3.99H1.83L3.945 9.9L6.15 3.99H7.725L9.885 9.93L12.06 3.99H13.725ZM18.3945 12.105C17.5845 12.105 16.8545 11.93 16.2045 11.58C15.5545 11.23 15.0445 10.745 14.6745 10.125C14.3145 9.495 14.1345 8.785 14.1345 7.995C14.1345 7.205 14.3145 6.5 14.6745 5.88C15.0445 5.26 15.5545 4.775 16.2045 4.425C16.8545 4.075 17.5845 3.9 18.3945 3.9C19.2145 3.9 19.9495 4.075 20.5995 4.425C21.2495 4.775 21.7545 5.26 22.1145 5.88C22.4845 6.5 22.6695 7.205 22.6695 7.995C22.6695 8.785 22.4845 9.495 22.1145 10.125C21.7545 10.745 21.2495 11.23 20.5995 11.58C19.9495 11.93 19.2145 12.105 18.3945 12.105ZM18.3945 10.5C19.0845 10.5 19.6545 10.27 20.1045 9.81C20.5545 9.35 20.7795 8.745 20.7795 7.995C20.7795 7.245 20.5545 6.64 20.1045 6.18C19.6545 5.72 19.0845 5.49 18.3945 5.49C17.7045 5.49 17.1345 5.72 16.6845 6.18C16.2445 6.64 16.0245 7.245 16.0245 7.995C16.0245 8.745 16.2445 9.35 16.6845 9.81C17.1345 10.27 17.7045 10.5 18.3945 10.5ZM29.0074 3.9C30.0174 3.9 30.8274 4.195 31.4374 4.785C32.0474 5.375 32.3524 6.25 32.3524 7.41V12H30.4774V7.65C30.4774 6.95 30.3124 6.425 29.9824 6.075C29.6524 5.715 29.1824 5.535 28.5724 5.535C27.8824 5.535 27.3374 5.745 26.9374 6.165C26.5374 6.575 26.3374 7.17 26.3374 7.95V12H24.4624V3.99H26.2474V5.025C26.5574 4.655 26.9474 4.375 27.4174 4.185C27.8874 3.995 28.4174 3.9 29.0074 3.9ZM33.906 15.015C33.116 15.015 32.516 14.86 32.106 14.55L32.646 13.155C32.926 13.365 33.291 13.47 33.741 13.47C34.091 13.47 34.356 13.36 34.536 13.14C34.726 12.93 34.821 12.615 34.821 12.195V3.99H36.696V12.15C36.696 13.04 36.451 13.74 35.961 14.25C35.471 14.76 34.786 15.015 33.906 15.015ZM35.751 2.67C35.411 2.67 35.126 2.565 34.896 2.355C34.666 2.135 34.551 1.865 34.551 1.545C34.551 1.225 34.666 0.959999 34.896 0.749999C35.126 0.53 35.411 0.42 35.751 0.42C36.091 0.42 36.376 0.525 36.606 0.734999C36.836 0.935 36.951 1.19 36.951 1.5C36.951 1.83 36.836 2.11 36.606 2.34C36.386 2.56 36.101 2.67 35.751 2.67ZM46.9098 3.99V12H45.1248V10.98C44.8248 11.34 44.4498 11.62 43.9998 11.82C43.5498 12.01 43.0648 12.105 42.5448 12.105C41.4748 12.105 40.6298 11.81 40.0098 11.22C39.3998 10.62 39.0948 9.735 39.0948 8.565V3.99H40.9698V8.31C40.9698 9.03 41.1298 9.57 41.4498 9.93C41.7798 10.28 42.2448 10.455 42.8448 10.455C43.5148 10.455 44.0448 10.25 44.4348 9.84C44.8348 9.42 45.0348 8.82 45.0348 8.04V3.99H46.9098ZM53.9098 3.9C54.9198 3.9 55.7298 4.195 56.3398 4.785C56.9498 5.375 57.2548 6.25 57.2548 7.41V12H55.3798V7.65C55.3798 6.95 55.2148 6.425 54.8848 6.075C54.5548 5.715 54.0848 5.535 53.4748 5.535C52.7848 5.535 52.2398 5.745 51.8398 6.165C51.4398 6.575 51.2398 7.17 51.2398 7.95V12H49.3648V3.99H51.1498V5.025C51.4598 4.655 51.8498 4.375 52.3198 4.185C52.7898 3.995 53.3198 3.9 53.9098 3.9ZM67.5516 0.869999V12H65.7516V10.965C65.4416 11.345 65.0566 11.63 64.5966 11.82C64.1466 12.01 63.6466 12.105 63.0966 12.105C62.3266 12.105 61.6316 11.935 61.0116 11.595C60.4016 11.255 59.9216 10.775 59.5716 10.155C59.2216 9.525 59.0466 8.805 59.0466 7.995C59.0466 7.185 59.2216 6.47 59.5716 5.85C59.9216 5.23 60.4016 4.75 61.0116 4.41C61.6316 4.07 62.3266 3.9 63.0966 3.9C63.6266 3.9 64.1116 3.99 64.5516 4.17C64.9916 4.35 65.3666 4.62 65.6766 4.98V0.869999H67.5516ZM63.3216 10.5C63.7716 10.5 64.1766 10.4 64.5366 10.2C64.8966 9.99 65.1816 9.695 65.3916 9.315C65.6016 8.935 65.7066 8.495 65.7066 7.995C65.7066 7.495 65.6016 7.055 65.3916 6.675C65.1816 6.295 64.8966 6.005 64.5366 5.805C64.1766 5.595 63.7716 5.49 63.3216 5.49C62.8716 5.49 62.4666 5.595 62.1066 5.805C61.7466 6.005 61.4616 6.295 61.2516 6.675C61.0416 7.055 60.9366 7.495 60.9366 7.995C60.9366 8.495 61.0416 8.935 61.2516 9.315C61.4616 9.695 61.7466 9.99 62.1066 10.2C62.4666 10.4 62.8716 10.5 63.3216 10.5ZM77.5344 8.04C77.5344 8.17 77.5244 8.355 77.5044 8.595H71.2194C71.3294 9.185 71.6144 9.655 72.0744 10.005C72.5444 10.345 73.1244 10.515 73.8144 10.515C74.6944 10.515 75.4194 10.225 75.9894 9.645L76.9944 10.8C76.6344 11.23 76.1794 11.555 75.6294 11.775C75.0794 11.995 74.4594 12.105 73.7694 12.105C72.8894 12.105 72.1144 11.93 71.4444 11.58C70.7744 11.23 70.2544 10.745 69.8844 10.125C69.5244 9.495 69.3444 8.785 69.3444 7.995C69.3444 7.215 69.5194 6.515 69.8694 5.895C70.2294 5.265 70.7244 4.775 71.3544 4.425C71.9844 4.075 72.6944 3.9 73.4844 3.9C74.2644 3.9 74.9594 4.075 75.5694 4.425C76.1894 4.765 76.6694 5.25 77.0094 5.88C77.3594 6.5 77.5344 7.22 77.5344 8.04ZM73.4844 5.4C72.8844 5.4 72.3744 5.58 71.9544 5.94C71.5444 6.29 71.2944 6.76 71.2044 7.35H75.7494C75.6694 6.77 75.4244 6.3 75.0144 5.94C74.6044 5.58 74.0944 5.4 73.4844 5.4ZM86.689 3.99L83.254 12H81.319L77.884 3.99H79.834L82.324 9.93L84.889 3.99H86.689Z" fill="white"/>
<path d="M88.1309 12.06C87.9609 12.06 87.8109 12 87.6809 11.88C87.5609 11.75 87.5009 11.595 87.5009 11.415C87.5009 11.235 87.5609 11.085 87.6809 10.965C87.8109 10.845 87.9609 10.785 88.1309 10.785C88.3009 10.785 88.4459 10.845 88.5659 10.965C88.6959 11.085 88.7609 11.235 88.7609 11.415C88.7609 11.595 88.6959 11.75 88.5659 11.88C88.4459 12 88.3009 12.06 88.1309 12.06ZM94.977 11.505C94.787 11.685 94.547 11.825 94.257 11.925C93.977 12.015 93.682 12.06 93.372 12.06C92.692 12.06 92.167 11.875 91.797 11.505C91.427 11.125 91.242 10.6 91.242 9.93V4.815H89.802V4.17H91.242V2.46H91.992V4.17H94.482V4.815H91.992V9.855C91.992 10.365 92.112 10.755 92.352 11.025C92.602 11.285 92.967 11.415 93.447 11.415C93.937 11.415 94.342 11.27 94.662 10.98L94.977 11.505ZM103.405 8.265H96.6702C96.6902 8.875 96.8452 9.42 97.1352 9.9C97.4252 10.37 97.8152 10.735 98.3052 10.995C98.8052 11.255 99.3652 11.385 99.9852 11.385C100.495 11.385 100.965 11.295 101.395 11.115C101.835 10.925 102.2 10.65 102.49 10.29L102.925 10.785C102.585 11.195 102.155 11.51 101.635 11.73C101.125 11.95 100.57 12.06 99.9702 12.06C99.1902 12.06 98.4952 11.89 97.8852 11.55C97.2752 11.21 96.7952 10.74 96.4452 10.14C96.1052 9.54 95.9352 8.855 95.9352 8.085C95.9352 7.325 96.0952 6.645 96.4152 6.045C96.7452 5.435 97.1952 4.96 97.7652 4.62C98.3352 4.28 98.9752 4.11 99.6852 4.11C100.395 4.11 101.03 4.28 101.59 4.62C102.16 4.95 102.605 5.415 102.925 6.015C103.255 6.615 103.42 7.295 103.42 8.055L103.405 8.265ZM99.6852 4.77C99.1352 4.77 98.6402 4.895 98.2002 5.145C97.7602 5.385 97.4052 5.73 97.1352 6.18C96.8752 6.62 96.7252 7.12 96.6852 7.68H102.685C102.655 7.12 102.505 6.62 102.235 6.18C101.965 5.74 101.61 5.395 101.17 5.145C100.73 4.895 100.235 4.77 99.6852 4.77ZM108.845 12.06C108.085 12.06 107.405 11.89 106.805 11.55C106.205 11.21 105.735 10.74 105.395 10.14C105.055 9.53 104.885 8.845 104.885 8.085C104.885 7.315 105.055 6.63 105.395 6.03C105.735 5.42 106.205 4.95 106.805 4.62C107.405 4.28 108.085 4.11 108.845 4.11C109.475 4.11 110.045 4.235 110.555 4.485C111.075 4.725 111.495 5.08 111.815 5.55L111.26 5.955C110.98 5.565 110.63 5.275 110.21 5.085C109.8 4.885 109.345 4.785 108.845 4.785C108.235 4.785 107.685 4.925 107.195 5.205C106.715 5.475 106.335 5.86 106.055 6.36C105.785 6.86 105.65 7.435 105.65 8.085C105.65 8.735 105.785 9.31 106.055 9.81C106.335 10.31 106.715 10.7 107.195 10.98C107.685 11.25 108.235 11.385 108.845 11.385C109.345 11.385 109.8 11.29 110.21 11.1C110.63 10.9 110.98 10.605 111.26 10.215L111.815 10.62C111.495 11.09 111.075 11.45 110.555 11.7C110.045 11.94 109.475 12.06 108.845 12.06ZM117.754 4.11C118.734 4.11 119.509 4.395 120.079 4.965C120.649 5.535 120.934 6.355 120.934 7.425V12H120.184V7.485C120.184 6.605 119.959 5.935 119.509 5.475C119.069 5.015 118.449 4.785 117.649 4.785C116.729 4.785 116.004 5.06 115.474 5.61C114.944 6.16 114.679 6.9 114.679 7.83V12H113.929V0.869999H114.679V5.805C114.949 5.265 115.349 4.85 115.879 4.56C116.409 4.26 117.034 4.11 117.754 4.11Z" fill="#5588F9"/>
</svg>
